<svg id="Layer_1" data-name="Layer 1" xmlns="http://www.w3.org/2000/svg" xmlns:xlink="http://www.w3.org/1999/xlink" viewBox="0 0 141.73 85.04"><defs><style>.cls-1{fill:none;}.cls-2{clip-path:url(#clip-path);}.cls-3{fill:#2f3c63;}.cls-4{fill:#f89c1e;}.cls-5{fill:#fff;}.cls-6{fill:#5dc6d3;}.cls-7{fill:#57b847;}</style><clipPath id="clip-path" transform="translate(-0.09)"><rect class="cls-1" x="0.09" width="141.73" height="85.04"/></clipPath></defs><g class="cls-2"><polygon class="cls-3" points="141.73 85.04 0 85.04 0 0 141.73 0 141.73 85.04"/></g><polygon class="cls-4" points="20.98 23.15 22.78 23.15 22.78 23.53 20.98 23.53 20.98 23.15"/><path class="cls-5" d="M23.16,22h1.73v.35H23.16V22Zm0-.86h1.73v.35H23.16v-.35Z" transform="translate(-0.09)"/><polygon class="cls-6" points="25.42 20.38 26.69 20.38 26.69 20.76 25.85 20.76 25.85 23.11 26.69 23.11 26.69 23.48 25.42 23.48 25.42 20.38"/><polygon class="cls-6" points="28.74 23.48 27.48 23.48 27.48 23.11 28.31 23.11 28.31 20.76 27.48 20.76 27.48 20.38 28.74 20.38 28.74 23.48"/><polygon class="cls-5" points="29.87 21.96 29.19 21.96 29.19 21.61 29.87 21.61 29.87 20.95 30.26 20.95 30.26 21.61 30.92 21.61 30.92 21.96 30.26 21.96 30.26 22.67 29.87 22.67 29.87 21.96"/><path class="cls-6" d="M31.91,23.27a.69.69,0,0,1-.22-.59v-.34a.45.45,0,0,0-.06-.27.22.22,0,0,0-.18-.08H31.3v-.36h.17a.24.24,0,0,0,.19-.08.4.4,0,0,0,.06-.25v-.38a.73.73,0,0,1,.2-.55.84.84,0,0,1,.58-.19h.33v.37h-.4c-.17,0-.26.11-.26.33v.38a.66.66,0,0,1-.08.32.58.58,0,0,1-.21.23.54.54,0,0,1,.2.24.78.78,0,0,1,.08.35v.29a.41.41,0,0,0,.09.3.39.39,0,0,0,.29.09h.29v.36h-.23a1.21,1.21,0,0,1-.68-.17Z" transform="translate(-0.09)"/><path class="cls-6" d="M33.65,23.43h-.23v-.36h.29A.4.4,0,0,0,34,23a.41.41,0,0,0,.09-.3v-.29a.82.82,0,0,1,.08-.35.68.68,0,0,1,.2-.24.58.58,0,0,1-.21-.23.69.69,0,0,1-.08-.32v-.38c0-.22-.09-.33-.26-.33h-.4v-.37h.33a.78.78,0,0,1,.58.19.73.73,0,0,1,.2.55v.38a.42.42,0,0,0,.06.25.23.23,0,0,0,.19.08h.17V22h-.17a.22.22,0,0,0-.18.08.45.45,0,0,0-.06.27v.34a.69.69,0,0,1-.22.59,1,1,0,0,1-.67.17Z" transform="translate(-0.09)"/><polygon class="cls-5" points="35.99 21.96 35.31 21.96 35.31 21.61 35.99 21.61 35.99 20.95 36.39 20.95 36.39 21.61 37.04 21.61 37.04 21.96 36.39 21.96 36.39 22.67 35.99 22.67 35.99 21.96"/><path class="cls-6" d="M38,23.27a.69.69,0,0,1-.22-.59v-.34a.45.45,0,0,0-.06-.27.22.22,0,0,0-.18-.08h-.17v-.36h.17a.24.24,0,0,0,.19-.08.4.4,0,0,0,.06-.25v-.38a.73.73,0,0,1,.2-.55.84.84,0,0,1,.58-.19h.33v.37h-.4c-.17,0-.26.11-.26.33v.38a.66.66,0,0,1-.08.32.58.58,0,0,1-.21.23.54.54,0,0,1,.2.24.78.78,0,0,1,.08.35v.29a.41.41,0,0,0,.09.3.39.39,0,0,0,.29.09h.29v.36H38.7a1.2,1.2,0,0,1-.67-.17Z" transform="translate(-0.09)"/><path class="cls-6" d="M39.77,23.43h-.23v-.36h.29a.4.4,0,0,0,.29-.09.41.41,0,0,0,.09-.3v-.29a.82.82,0,0,1,.08-.35.68.68,0,0,1,.2-.24.58.58,0,0,1-.21-.23.69.69,0,0,1-.08-.32v-.38c0-.22-.09-.33-.26-.33h-.4v-.37h.33a.78.78,0,0,1,.58.19.73.73,0,0,1,.2.55v.38a.42.42,0,0,0,.06.25.23.23,0,0,0,.19.08h.17V22h-.17a.22.22,0,0,0-.18.08.45.45,0,0,0-.06.27v.34a.69.69,0,0,1-.22.59,1,1,0,0,1-.67.17Z" transform="translate(-0.09)"/><polygon class="cls-6" points="41.75 20.38 43.01 20.38 43.01 20.76 42.18 20.76 42.18 23.11 43.01 23.11 43.01 23.48 41.75 23.48 41.75 20.38"/><path class="cls-6" d="M60.48,23.27a.69.69,0,0,1-.22-.59v-.34a.45.45,0,0,0-.06-.27A.22.22,0,0,0,60,22h-.17v-.36H60a.24.24,0,0,0,.19-.08.4.4,0,0,0,.06-.25v-.38a.73.73,0,0,1,.2-.55.84.84,0,0,1,.58-.19h.33v.37H61c-.17,0-.26.11-.26.33v.38a.66.66,0,0,1-.08.32.58.58,0,0,1-.21.23.54.54,0,0,1,.2.24.78.78,0,0,1,.08.35v.29a.41.41,0,0,0,.09.3.39.39,0,0,0,.29.09h.29v.36h-.23a1.2,1.2,0,0,1-.67-.17Z" transform="translate(-0.09)"/><path class="cls-6" d="M62.22,23.43H62v-.36h.29a.4.4,0,0,0,.29-.09.41.41,0,0,0,.09-.3v-.29a.82.82,0,0,1,.08-.35.68.68,0,0,1,.2-.24.58.58,0,0,1-.21-.23.69.69,0,0,1-.08-.32v-.38c0-.22-.09-.33-.26-.33H62v-.37h.33a.78.78,0,0,1,.58.19.73.73,0,0,1,.2.55v.38a.42.42,0,0,0,.06.25.23.23,0,0,0,.19.08h.17V22h-.17a.22.22,0,0,0-.18.08.45.45,0,0,0-.06.27v.34a.69.69,0,0,1-.22.59,1.07,1.07,0,0,1-.68.17Z" transform="translate(-0.09)"/><polygon class="cls-6" points="65.48 23.48 64.21 23.48 64.21 23.11 65.05 23.11 65.05 20.76 64.21 20.76 64.21 20.38 65.48 20.38 65.48 23.48"/><polygon class="cls-5" points="66.6 21.96 65.93 21.96 65.93 21.61 66.6 21.61 66.6 20.95 67 20.95 67 21.61 67.65 21.61 67.65 21.96 67 21.96 67 22.67 66.6 22.67 66.6 21.96"/><path class="cls-5" d="M68.59,20.77a.4.4,0,0,1,.07-.3.29.29,0,0,1,.22-.1.27.27,0,0,1,.22.09.42.42,0,0,1,.06.3l-.11,1.54h-.37l-.09-1.53Zm0,2.3a.29.29,0,0,1,0-.42.31.31,0,0,1,.22-.09.32.32,0,0,1,.23.09.29.29,0,0,1,.09.21.26.26,0,0,1-.1.21.32.32,0,0,1-.23.09.36.36,0,0,1-.21-.09Z" transform="translate(-0.09)"/><polygon class="cls-6" points="70.32 20.38 71.59 20.38 71.59 20.76 70.75 20.76 70.75 23.11 71.59 23.11 71.59 23.48 70.32 23.48 70.32 20.38"/><polygon class="cls-6" points="73.64 23.48 72.38 23.48 72.38 23.11 73.21 23.11 73.21 20.76 72.38 20.76 72.38 20.38 73.64 20.38 73.64 23.48"/><polygon class="cls-5" points="74.77 21.96 74.09 21.96 74.09 21.61 74.77 21.61 74.77 20.95 75.16 20.95 75.16 21.61 75.82 21.61 75.82 21.96 75.16 21.96 75.16 22.67 74.77 22.67 74.77 21.96"/><path class="cls-5" d="M76.75,20.77a.4.4,0,0,1,.07-.3.29.29,0,0,1,.22-.1.27.27,0,0,1,.22.09.42.42,0,0,1,.06.3l-.11,1.54h-.37l-.09-1.53Zm.06,2.3a.29.29,0,0,1,0-.42.31.31,0,0,1,.22-.09.32.32,0,0,1,.23.09.29.29,0,0,1,.09.21.26.26,0,0,1-.1.21.32.32,0,0,1-.23.09.33.33,0,0,1-.21-.09Z" transform="translate(-0.09)"/><path class="cls-5" d="M78.79,20.77a.4.4,0,0,1,.07-.3.29.29,0,0,1,.22-.1.27.27,0,0,1,.22.09.42.42,0,0,1,.06.3l-.11,1.54h-.37l-.09-1.53Zm.06,2.3a.29.29,0,0,1,0-.42.31.31,0,0,1,.22-.09.32.32,0,0,1,.23.09.29.29,0,0,1,.09.21.26.26,0,0,1-.1.21.32.32,0,0,1-.23.09.33.33,0,0,1-.21-.09Z" transform="translate(-0.09)"/><polygon class="cls-6" points="80.53 20.38 81.79 20.38 81.79 20.76 80.96 20.76 80.96 23.11 81.79 23.11 81.79 23.48 80.53 23.48 80.53 20.38"/><polygon class="cls-6" points="100.17 23.48 98.91 23.48 98.91 23.11 99.74 23.11 99.74 20.76 98.91 20.76 98.91 20.38 100.17 20.38 100.17 23.48"/><path class="cls-5" d="M101.29,21.81a.25.25,0,0,1-.09-.2.27.27,0,0,1,.09-.2.32.32,0,0,1,.42,0,.26.26,0,0,1,.1.2.27.27,0,0,1-.09.2.33.33,0,0,1-.22.08.28.28,0,0,1-.21-.08Zm-.17,1.79a1,1,0,0,0,.19-.22.42.42,0,0,0,.08-.18s0-.05-.07-.09l-.09-.1a.17.17,0,0,1,0-.1.28.28,0,0,1,.08-.2.33.33,0,0,1,.22-.08.34.34,0,0,1,.24.11.36.36,0,0,1,.1.27,1.36,1.36,0,0,1-.48.81l-.24-.22Z" transform="translate(-0.09)"/><path class="cls-4" d="M104.08,22.39c0-.13-.08-.22-.24-.28v.58a.31.31,0,0,0,.24-.3Zm-.6-1.32a.25.25,0,0,0-.14.08.22.22,0,0,0,0,.28.3.3,0,0,0,.14.1v-.46Zm0,2a.92.92,0,0,1-.36-.13,1,1,0,0,1-.31-.24l.25-.35a.09.09,0,0,1,.06,0l0,.06s0,0,0,0a.58.58,0,0,0,.33.2V22a1.19,1.19,0,0,1-.46-.27.57.57,0,0,1,0-.79.78.78,0,0,1,.43-.23v-.24h.41s0,0,0,0a.56.56,0,0,0,0,.07.18.18,0,0,0,0,.06v.07a1,1,0,0,1,.58.37l-.24.31,0,0a.16.16,0,0,1,0-.06s0,0,0-.06a.53.53,0,0,0-.11-.09.35.35,0,0,0-.14-.06v.6a1.23,1.23,0,0,1,.5.27.57.57,0,0,1,.16.42.68.68,0,0,1-.17.45.87.87,0,0,1-.46.26v.22h-.41v-.21Z" transform="translate(-0.09)"/><path class="cls-5" d="M104.79,22h1.73v.35h-1.73V22Zm0-.86h1.73v.35h-1.73v-.35Z" transform="translate(-0.09)"/><polygon class="cls-4" points="106.7 23.15 108.5 23.15 108.5 23.53 106.7 23.53 106.7 23.15"/><polygon class="cls-6" points="109.1 20.38 110.37 20.38 110.37 20.76 109.53 20.76 109.53 23.11 110.37 23.11 110.37 23.48 109.1 23.48 109.1 20.38"/><path class="cls-7" d="M111,22.71l.34-.26,0,0,0,0a.17.17,0,0,0,0,.07l0,.08a.45.45,0,0,0,.36.17.35.35,0,0,0,.29-.13.53.53,0,0,0,.11-.37.58.58,0,0,0-.11-.37.35.35,0,0,0-.29-.13.43.43,0,0,0-.22.06.66.66,0,0,0-.18.19l-.29-.13.09-1.33h1.37V21h-1l0,.49a1,1,0,0,1,.28,0,.77.77,0,0,1,.58.23.94.94,0,0,1,.21.65,1,1,0,0,1-.1.47.82.82,0,0,1-.29.32.94.94,0,0,1-.45.11.88.88,0,0,1-.81-.49Z" transform="translate(-0.09)"/><polygon class="cls-6" points="114.46 23.48 113.19 23.48 113.19 23.11 114.03 23.11 114.03 20.76 113.19 20.76 113.19 20.38 114.46 20.38 114.46 23.48"/><polygon class="cls-5" points="115.59 21.96 114.91 21.96 114.91 21.61 115.59 21.61 115.59 20.95 115.98 20.95 115.98 21.61 116.64 21.61 116.64 21.96 115.98 21.96 115.98 22.67 115.59 22.67 115.59 21.96"/><polygon class="cls-4" points="116.9 23.15 118.71 23.15 118.71 23.53 116.9 23.53 116.9 23.15"/><polygon class="cls-6" points="119.31 20.38 120.57 20.38 120.57 20.76 119.73 20.76 119.73 23.11 120.57 23.11 120.57 23.48 119.31 23.48 119.31 20.38"/><polygon class="cls-7" points="19.67 24.72 19.23 24.85 19.12 24.57 19.81 24.2 20.12 24.2 20.12 26.74 19.67 26.74 19.67 24.72"/><polygon class="cls-6" points="22.62 27.11 21.35 27.11 21.35 26.74 22.19 26.74 22.19 24.39 21.35 24.39 21.35 24.01 22.62 24.01 22.62 27.11"/><polygon class="cls-5" points="23.74 25.59 23.07 25.59 23.07 25.24 23.74 25.24 23.74 24.58 24.14 24.58 24.14 25.24 24.79 25.24 24.79 25.59 24.14 25.59 24.14 26.3 23.74 26.3 23.74 25.59"/><polygon class="cls-4" points="25.06 26.77 26.86 26.77 26.86 27.15 25.06 27.15 25.06 26.77"/><polygon class="cls-6" points="27.46 24.01 28.73 24.01 28.73 24.39 27.89 24.39 27.89 26.74 28.73 26.74 28.73 27.11 27.46 27.11 27.46 24.01"/><polygon class="cls-7" points="29.88 24.72 29.44 24.85 29.33 24.57 30.02 24.2 30.32 24.2 30.32 26.74 29.88 26.74 29.88 24.72"/><path class="cls-7" d="M32.46,26.27a.61.61,0,0,0,.1-.35.49.49,0,0,0-.1-.34.31.31,0,0,0-.24-.12.35.35,0,0,0-.21.07.42.42,0,0,0-.17.18,1,1,0,0,0,.11.51.32.32,0,0,0,.28.19.34.34,0,0,0,.23-.14Zm-.7.39a.92.92,0,0,1-.29-.44,1.85,1.85,0,0,1-.1-.65,2.2,2.2,0,0,1,.12-.76,1.12,1.12,0,0,1,.33-.49.8.8,0,0,1,.5-.17.88.88,0,0,1,.64.3l-.29.3,0,0,0,0a.14.14,0,0,0,0-.06l-.06-.08a.38.38,0,0,0-.22-.07.41.41,0,0,0-.31.17,1.06,1.06,0,0,0-.18.53.78.78,0,0,1,.2-.14.49.49,0,0,1,.22-.06.74.74,0,0,1,.67.42.93.93,0,0,1,.1.45,1,1,0,0,1-.11.46.85.85,0,0,1-.29.33.72.72,0,0,1-.4.12.66.66,0,0,1-.46-.16Z" transform="translate(-0.09)"/><polygon class="cls-6" points="34.86 27.11 33.6 27.11 33.6 26.74 34.43 26.74 34.43 24.39 33.6 24.39 33.6 24.01 34.86 24.01 34.86 27.11"/><polygon class="cls-5" points="35.99 25.59 35.31 25.59 35.31 25.24 35.99 25.24 35.99 24.58 36.39 24.58 36.39 25.24 37.04 25.24 37.04 25.59 36.39 25.59 36.39 26.3 35.99 26.3 35.99 25.59"/><polygon class="cls-4" points="37.3 26.77 39.11 26.77 39.11 27.15 37.3 27.15 37.3 26.77"/><polygon class="cls-6" points="39.71 24.01 40.97 24.01 40.97 24.39 40.14 24.39 40.14 26.74 40.97 26.74 40.97 27.11 39.71 27.11 39.71 24.01"/><polygon class="cls-7" points="42.12 24.72 41.68 24.85 41.57 24.57 42.26 24.2 42.57 24.2 42.57 26.74 42.12 26.74 42.12 24.72"/><polygon class="cls-5" points="44.15 25.59 43.48 25.59 43.48 25.24 44.15 25.24 44.15 24.58 44.55 24.58 44.55 25.24 45.2 25.24 45.2 25.59 44.55 25.59 44.55 26.3 44.15 26.3 44.15 25.59"/><path class="cls-7" d="M57.92,26.41c.33-.32.57-.55.71-.7a2.72,2.72,0,0,0,.33-.42.83.83,0,0,0,.11-.4.34.34,0,0,0-.1-.26.4.4,0,0,0-.27-.09.53.53,0,0,0-.41.16l0,.08a.15.15,0,0,0,0,.07l0,0,0,0-.3-.23a1,1,0,0,1,.36-.36,1,1,0,0,1,.48-.13.91.91,0,0,1,.41.09.7.7,0,0,1,.38.65.92.92,0,0,1-.1.42,2.28,2.28,0,0,1-.27.39c-.11.13-.28.3-.49.51l-.16.16h.93s0,0,.06,0h0v.42H57.93v-.33Z" transform="translate(-0.09)"/><path class="cls-7" d="M61,26.27a.61.61,0,0,0,.1-.35.49.49,0,0,0-.1-.34.31.31,0,0,0-.24-.12.33.33,0,0,0-.21.07.42.42,0,0,0-.17.18,1,1,0,0,0,.11.51.32.32,0,0,0,.28.19.3.3,0,0,0,.23-.14Zm-.7.39a.92.92,0,0,1-.29-.44,1.85,1.85,0,0,1-.1-.65,2.2,2.2,0,0,1,.12-.76,1.12,1.12,0,0,1,.33-.49.8.8,0,0,1,.5-.17.88.88,0,0,1,.64.3l-.29.3,0,0,0,0a.14.14,0,0,0,0-.06l-.06-.08a.38.38,0,0,0-.22-.07.41.41,0,0,0-.31.17,1.06,1.06,0,0,0-.18.53.78.78,0,0,1,.2-.14.49.49,0,0,1,.22-.06.74.74,0,0,1,.67.42.93.93,0,0,1,.1.45,1,1,0,0,1-.11.46.85.85,0,0,1-.29.33.72.72,0,0,1-.4.12.68.68,0,0,1-.46-.16Z" transform="translate(-0.09)"/><polygon class="cls-6" points="63.44 27.11 62.17 27.11 62.17 26.74 63.01 26.74 63.01 24.39 62.17 24.39 62.17 24.01 63.44 24.01 63.44 27.11"/><polygon class="cls-5" points="64.56 25.59 63.89 25.59 63.89 25.24 64.56 25.24 64.56 24.58 64.96 24.58 64.96 25.24 65.61 25.24 65.61 25.59 64.96 25.59 64.96 26.3 64.56 26.3 64.56 25.59"/><polygon class="cls-4" points="65.88 26.77 67.68 26.77 67.68 27.15 65.88 27.15 65.88 26.77"/><polygon class="cls-6" points="68.28 24.01 69.55 24.01 69.55 24.39 68.71 24.39 68.71 26.74 69.55 26.74 69.55 27.11 68.28 27.11 68.28 24.01"/><path class="cls-7" d="M71.23,26.27a.61.61,0,0,0,.1-.35.49.49,0,0,0-.1-.34.31.31,0,0,0-.24-.12.33.33,0,0,0-.21.07.42.42,0,0,0-.17.18,1,1,0,0,0,.11.51.32.32,0,0,0,.28.19.3.3,0,0,0,.23-.14Zm-.69.39a.92.92,0,0,1-.29-.44,1.85,1.85,0,0,1-.1-.65,2.2,2.2,0,0,1,.12-.76,1.12,1.12,0,0,1,.33-.49.8.8,0,0,1,.5-.17.88.88,0,0,1,.64.3l-.29.3,0,0,0,0a.14.14,0,0,0,0-.06l-.06-.08a.38.38,0,0,0-.22-.07.41.41,0,0,0-.31.17,1.06,1.06,0,0,0-.18.53.78.78,0,0,1,.2-.14A.49.49,0,0,1,71,25a.74.74,0,0,1,.67.42.93.93,0,0,1,.1.45,1,1,0,0,1-.11.46.85.85,0,0,1-.29.33.72.72,0,0,1-.4.12.65.65,0,0,1-.46-.16Z" transform="translate(-0.09)"/><polygon class="cls-6" points="73.64 27.11 72.38 27.11 72.38 26.74 73.21 26.74 73.21 24.39 72.38 24.39 72.38 24.01 73.64 24.01 73.64 27.11"/><polygon class="cls-5" points="74.77 25.59 74.09 25.59 74.09 25.24 74.77 25.24 74.77 24.58 75.16 24.58 75.16 25.24 75.82 25.24 75.82 25.59 75.16 25.59 75.16 26.3 74.77 26.3 74.77 25.59"/><polygon class="cls-4" points="76.08 26.77 77.89 26.77 77.89 27.15 76.08 27.15 76.08 26.77"/><polygon class="cls-6" points="78.49 24.01 79.75 24.01 79.75 24.39 78.92 24.39 78.92 26.74 79.75 26.74 79.75 27.11 78.49 27.11 78.49 24.01"/><polygon class="cls-7" points="80.9 24.72 80.46 24.85 80.35 24.57 81.04 24.2 81.35 24.2 81.35 26.74 80.9 26.74 80.9 24.72"/><polygon class="cls-5" points="82.93 25.59 82.25 25.59 82.25 25.24 82.93 25.24 82.93 24.58 83.33 24.58 83.33 25.24 83.98 25.24 83.98 25.59 83.33 25.59 83.33 26.3 82.93 26.3 82.93 25.59"/><path class="cls-7" d="M96.7,26.41c.33-.32.57-.55.71-.7a2.72,2.72,0,0,0,.33-.42.83.83,0,0,0,.11-.4.34.34,0,0,0-.1-.26.4.4,0,0,0-.27-.09.53.53,0,0,0-.41.16l0,.08a.15.15,0,0,0,0,.07l0,0,0,0-.3-.23a1,1,0,0,1,.36-.36,1,1,0,0,1,.48-.13.91.91,0,0,1,.41.09.7.7,0,0,1,.38.65.92.92,0,0,1-.1.42,2.28,2.28,0,0,1-.27.39c-.11.13-.28.3-.49.51l-.16.16h.93s0,0,.06,0h0v.42H96.7v-.33Z" transform="translate(-0.09)"/><path class="cls-7" d="M99.73,25.44a.53.53,0,0,0,.15-.22,2,2,0,0,0,0-.41.38.38,0,0,0-.11-.2.28.28,0,0,0-.18-.06.35.35,0,0,0-.3.13.59.59,0,0,0-.11.38.49.49,0,0,0,.1.34.36.36,0,0,0,.28.11.31.31,0,0,0,.21-.07Zm.59-.05c0,.95-.29,1.42-.87,1.42a1.14,1.14,0,0,1-.4-.08,1.16,1.16,0,0,1-.36-.23l.27-.31,0,0,0,0a.14.14,0,0,0,0,.06l.07.06a.61.61,0,0,0,.3.08.37.37,0,0,0,.25-.07.44.44,0,0,0,.14-.22,1.79,1.79,0,0,0,.06-.4.6.6,0,0,1-.43.2.72.72,0,0,1-.37-.11.87.87,0,0,1-.29-.31,1,1,0,0,1-.11-.46.94.94,0,0,1,.11-.45.82.82,0,0,1,.74-.44c.55,0,.81.43.81,1.26Z" transform="translate(-0.09)"/><polygon class="cls-6" points="102.21 27.11 100.95 27.11 100.95 26.74 101.79 26.74 101.79 24.39 100.95 24.39 100.95 24.01 102.21 24.01 102.21 27.11"/><polygon class="cls-5" points="103.34 25.59 102.66 25.59 102.66 25.24 103.34 25.24 103.34 24.58 103.74 24.58 103.74 25.24 104.39 25.24 104.39 25.59 103.74 25.59 103.74 26.3 103.34 26.3 103.34 25.59"/><polygon class="cls-4" points="104.66 26.77 106.46 26.77 106.46 27.15 104.66 27.15 104.66 26.77"/><polygon class="cls-6" points="107.06 24.01 108.33 24.01 108.33 24.39 107.49 24.39 107.49 26.74 108.33 26.74 108.33 27.11 107.06 27.11 107.06 24.01"/><polygon class="cls-7" points="109.47 24.72 109.04 24.85 108.93 24.57 109.62 24.2 109.92 24.2 109.92 26.74 109.47 26.74 109.47 24.72"/><path class="cls-7" d="M111,26.34l.34-.26,0,0,0,0a.17.17,0,0,0,0,.07l0,.08a.45.45,0,0,0,.36.17.35.35,0,0,0,.29-.13.53.53,0,0,0,.11-.37.58.58,0,0,0-.11-.37.35.35,0,0,0-.29-.13.43.43,0,0,0-.22.06.66.66,0,0,0-.18.19l-.29-.13.09-1.33h1.37v.39h-1l0,.49a1,1,0,0,1,.28,0,.77.77,0,0,1,.58.23.94.94,0,0,1,.21.65,1,1,0,0,1-.1.47.82.82,0,0,1-.29.32.94.94,0,0,1-.45.11.88.88,0,0,1-.81-.49Z" transform="translate(-0.09)"/><polygon class="cls-6" points="114.46 27.11 113.19 27.11 113.19 26.74 114.03 26.74 114.03 24.39 113.19 24.39 113.19 24.01 114.46 24.01 114.46 27.11"/><polygon class="cls-5" points="115.59 25.59 114.91 25.59 114.91 25.24 115.59 25.24 115.59 24.58 115.98 24.58 115.98 25.24 116.64 25.24 116.64 25.59 115.98 25.59 115.98 26.3 115.59 26.3 115.59 25.59"/><polygon class="cls-4" points="116.9 26.77 118.71 26.77 118.71 27.15 116.9 27.15 116.9 26.77"/><polygon class="cls-6" points="119.31 24.01 120.57 24.01 120.57 24.39 119.73 24.39 119.73 26.74 120.57 26.74 120.57 27.11 119.31 27.11 119.31 24.01"/><path class="cls-7" d="M121.17,26.34l.34-.26,0,0,0,0a.17.17,0,0,0,0,.07.59.59,0,0,0,0,.08.45.45,0,0,0,.36.17.35.35,0,0,0,.29-.13.53.53,0,0,0,.11-.37.58.58,0,0,0-.11-.37.35.35,0,0,0-.29-.13.43.43,0,0,0-.22.06.66.66,0,0,0-.18.19l-.29-.13.09-1.33h1.37v.39h-1l0,.49a1,1,0,0,1,.28,0,.77.77,0,0,1,.58.23.94.94,0,0,1,.21.65,1,1,0,0,1-.1.47.82.82,0,0,1-.29.32.94.94,0,0,1-.45.11.89.89,0,0,1-.81-.49Z" transform="translate(-0.09)"/><polygon class="cls-6" points="16.49 30.74 15.23 30.74 15.23 30.37 16.07 30.37 16.07 28.02 15.23 28.02 15.23 27.64 16.49 27.64 16.49 30.74"/><polygon class="cls-5" points="17.62 29.21 16.94 29.21 16.94 28.87 17.62 28.87 17.62 28.21 18.02 28.21 18.02 28.87 18.67 28.87 18.67 29.21 18.02 29.21 18.02 29.93 17.62 29.93 17.62 29.21"/><polygon class="cls-4" points="18.94 30.4 20.74 30.4 20.74 30.78 18.94 30.78 18.94 30.4"/><polygon class="cls-6" points="21.34 27.64 22.61 27.64 22.61 28.02 21.77 28.02 21.77 30.37 22.61 30.37 22.61 30.74 21.34 30.74 21.34 27.64"/><path class="cls-7" d="M24.29,29.9a.61.61,0,0,0,.1-.35.54.54,0,0,0-.1-.35.31.31,0,0,0-.24-.12.35.35,0,0,0-.21.07.42.42,0,0,0-.17.18,1,1,0,0,0,.11.51.32.32,0,0,0,.28.19.29.29,0,0,0,.23-.13Zm-.7.39a.92.92,0,0,1-.29-.44,1.85,1.85,0,0,1-.1-.65,2.2,2.2,0,0,1,.12-.76,1.12,1.12,0,0,1,.33-.49.8.8,0,0,1,.5-.17.88.88,0,0,1,.64.3l-.29.3,0,0,0,0a.14.14,0,0,0,0-.06l-.06-.08a.38.38,0,0,0-.22-.07.41.41,0,0,0-.31.17,1.06,1.06,0,0,0-.18.53.78.78,0,0,1,.2-.14.47.47,0,0,1,.22-.05.74.74,0,0,1,.67.42.93.93,0,0,1,.1.45,1,1,0,0,1-.11.46.85.85,0,0,1-.29.33.72.72,0,0,1-.4.12.81.81,0,0,1-.46-.17Z" transform="translate(-0.09)"/><polygon class="cls-6" points="40.99 30.74 39.72 30.74 39.72 30.37 40.56 30.37 40.56 28.02 39.72 28.02 39.72 27.64 40.99 27.64 40.99 30.74"/><polygon class="cls-5" points="42.11 29.21 41.44 29.21 41.44 28.87 42.11 28.87 42.11 28.21 42.51 28.21 42.51 28.87 43.16 28.87 43.16 29.21 42.51 29.21 42.51 29.93 42.11 29.93 42.11 29.21"/><polygon class="cls-4" points="43.43 30.4 45.23 30.4 45.23 30.78 43.43 30.78 43.43 30.4"/><polygon class="cls-6" points="45.83 27.64 47.1 27.64 47.1 28.02 46.26 28.02 46.26 30.37 47.1 30.37 47.1 30.74 45.83 30.74 45.83 27.64"/><polygon class="cls-5" points="48.24 28.35 47.81 28.48 47.7 28.2 48.39 27.83 48.69 27.83 48.69 30.37 48.24 30.37 48.24 28.35"/><polygon class="cls-6" points="55.27 30.74 54.01 30.74 54.01 30.37 54.84 30.37 54.84 28.02 54.01 28.02 54.01 27.64 55.27 27.64 55.27 30.74"/><polygon class="cls-5" points="56.4 29.21 55.72 29.21 55.72 28.87 56.4 28.87 56.4 28.21 56.8 28.21 56.8 28.87 57.45 28.87 57.45 29.21 56.8 29.21 56.8 29.93 56.4 29.93 56.4 29.21"/><polygon class="cls-4" points="57.71 30.4 59.52 30.4 59.52 30.78 57.71 30.78 57.71 30.4"/><polygon class="cls-6" points="60.12 27.64 61.38 27.64 61.38 28.02 60.55 28.02 60.55 30.37 61.38 30.37 61.38 30.74 60.12 30.74 60.12 27.64"/><polygon class="cls-5" points="62.53 28.35 62.09 28.48 61.98 28.2 62.67 27.83 62.98 27.83 62.98 30.37 62.53 30.37 62.53 28.35"/><polygon class="cls-5" points="76.81 29.21 76.13 29.21 76.13 28.87 76.81 28.87 76.81 28.21 77.2 28.21 77.2 28.87 77.86 28.87 77.86 29.21 77.2 29.21 77.2 29.93 76.81 29.93 76.81 29.21"/><path class="cls-7" d="M78.33,30c.33-.32.57-.55.71-.7a2.72,2.72,0,0,0,.33-.42.83.83,0,0,0,.11-.4.34.34,0,0,0-.1-.26.4.4,0,0,0-.27-.09.53.53,0,0,0-.41.16l0,.08a.15.15,0,0,0,0,.07l0,0,0,0-.3-.23a1,1,0,0,1,.36-.36,1,1,0,0,1,.48-.13.91.91,0,0,1,.41.09.7.7,0,0,1,.38.65.92.92,0,0,1-.1.42,2.28,2.28,0,0,1-.27.39l-.49.51-.16.15h.93s0,0,.06,0h0v.42H78.34V30Z" transform="translate(-0.09)"/><path class="cls-7" d="M81.36,29.07a.53.53,0,0,0,.15-.22,2,2,0,0,0,0-.41.38.38,0,0,0-.11-.2.28.28,0,0,0-.18-.06.35.35,0,0,0-.3.13.59.59,0,0,0-.11.38.49.49,0,0,0,.1.34.36.36,0,0,0,.28.11.3.3,0,0,0,.21-.07ZM82,29c0,.95-.29,1.42-.87,1.42a1.14,1.14,0,0,1-.4-.08,1.16,1.16,0,0,1-.36-.23l.27-.31,0,0,0,0a.08.08,0,0,0,0,.05.22.22,0,0,0,.07.06A.61.61,0,0,0,81,30a.37.37,0,0,0,.25-.07.44.44,0,0,0,.14-.22,1.79,1.79,0,0,0,.06-.4.6.6,0,0,1-.43.2.72.72,0,0,1-.37-.11.87.87,0,0,1-.29-.31,1,1,0,0,1-.11-.46.94.94,0,0,1,.11-.45.82.82,0,0,1,.74-.44c.55,0,.81.44.81,1.27Z" transform="translate(-0.09)"/><polygon class="cls-6" points="83.85 30.74 82.58 30.74 82.58 30.37 83.42 30.37 83.42 28.02 82.58 28.02 82.58 27.64 83.85 27.64 83.85 30.74"/><path class="cls-5" d="M85,29.07a.25.25,0,0,1-.09-.2.27.27,0,0,1,.09-.2.32.32,0,0,1,.42,0,.26.26,0,0,1,.1.2.27.27,0,0,1-.09.2.33.33,0,0,1-.22.08.32.32,0,0,1-.21-.08Zm-.17,1.78a1,1,0,0,0,.19-.22.42.42,0,0,0,.08-.18s0-.05-.07-.09l-.09-.1a.17.17,0,0,1,0-.1A.28.28,0,0,1,85,30a.33.33,0,0,1,.22-.08.34.34,0,0,1,.24.11.36.36,0,0,1,.1.27,1.36,1.36,0,0,1-.48.81l-.24-.22Z" transform="translate(-0.09)"/><path class="cls-5" d="M87.25,30.4a2,2,0,0,1-.42-.62,1.79,1.79,0,0,1-.15-.72,1.86,1.86,0,0,1,.14-.7,1.65,1.65,0,0,1,.41-.6,1.89,1.89,0,0,1,.62-.42l.11.36a1.58,1.58,0,0,0-.63.57,1.49,1.49,0,0,0-.22.81,1.6,1.6,0,0,0,.23.83,1.53,1.53,0,0,0,.64.57l-.11.35a1.87,1.87,0,0,1-.62-.43Z" transform="translate(-0.09)"/><polygon class="cls-6" points="92.77 27.64 94.04 27.64 94.04 28.02 93.2 28.02 93.2 30.37 94.04 30.37 94.04 30.74 92.77 30.74 92.77 27.64"/><polygon class="cls-6" points="96.09 30.74 94.83 30.74 94.83 30.37 95.66 30.37 95.66 28.02 94.83 28.02 94.83 27.64 96.09 27.64 96.09 30.74"/><polygon class="cls-5" points="97.22 29.21 96.54 29.21 96.54 28.87 97.22 28.87 97.22 28.21 97.61 28.21 97.61 28.87 98.27 28.87 98.27 29.21 97.61 29.21 97.61 29.93 97.22 29.93 97.22 29.21"/><polygon class="cls-6" points="98.9 27.64 100.16 27.64 100.16 28.02 99.32 28.02 99.32 30.37 100.16 30.37 100.16 30.74 98.9 30.74 98.9 27.64"/><polygon class="cls-6" points="102.21 30.74 100.95 30.74 100.95 30.37 101.79 30.37 101.79 28.02 100.95 28.02 100.95 27.64 102.21 27.64 102.21 30.74"/><path class="cls-5" d="M115.37,30.82l-.11-.35a1.48,1.48,0,0,0,.64-.57,1.51,1.51,0,0,0,.23-.83,1.45,1.45,0,0,0-.22-.81,1.58,1.58,0,0,0-.63-.57l.11-.36a1.89,1.89,0,0,1,.62.42,2,2,0,0,1,.41.6,1.9,1.9,0,0,1,.14.7,1.86,1.86,0,0,1-.15.72,2,2,0,0,1-.42.62,1.48,1.48,0,0,1-.62.43Z" transform="translate(-0.09)"/><polygon class="cls-6" points="117.26 27.64 118.53 27.64 118.53 28.02 117.69 28.02 117.69 30.37 118.53 30.37 118.53 30.74 117.26 30.74 117.26 27.64"/><path class="cls-4" d="M120.41,29.65c0-.13-.08-.22-.24-.28V30a.31.31,0,0,0,.24-.3Zm-.61-1.32a.25.25,0,0,0-.14.08.22.22,0,0,0,0,.28.3.3,0,0,0,.14.1v-.46Zm0,2a.92.92,0,0,1-.36-.13,1,1,0,0,1-.31-.24l.25-.35a.09.09,0,0,1,.06,0l0,.06s0,0,0,0a.58.58,0,0,0,.33.2v-.73a1.19,1.19,0,0,1-.46-.27.57.57,0,0,1,0-.79.78.78,0,0,1,.43-.23V27.7h.41s0,0,0,0a.56.56,0,0,0,0,.07.18.18,0,0,0,0,.06v.07a1,1,0,0,1,.58.37l-.24.31,0,0a.16.16,0,0,1,0-.06s0,0,0-.05a.53.53,0,0,0-.11-.09.35.35,0,0,0-.14-.06v.6a1.23,1.23,0,0,1,.5.27.57.57,0,0,1,.16.42.68.68,0,0,1-.17.45.87.87,0,0,1-.46.26v.22h-.41v-.22Z" transform="translate(-0.09)"/><polygon class="cls-6" points="122.62 30.74 121.36 30.74 121.36 30.37 122.2 30.37 122.2 28.02 121.36 28.02 121.36 27.64 122.62 27.64 122.62 30.74"/><polygon class="cls-6" points="123.39 27.64 124.65 27.64 124.65 28.02 123.82 28.02 123.82 30.37 124.65 30.37 124.65 30.74 123.39 30.74 123.39 27.64"/><path class="cls-4" d="M126.53,29.65c0-.13-.08-.22-.24-.28V30a.31.31,0,0,0,.24-.3Zm-.6-1.32a.25.25,0,0,0-.14.08.22.22,0,0,0,0,.28.3.3,0,0,0,.14.1v-.46Zm0,2a.92.92,0,0,1-.36-.13,1,1,0,0,1-.31-.24l.25-.35a.09.09,0,0,1,.06,0l0,.06s0,0,0,0a.58.58,0,0,0,.33.2v-.73a1.19,1.19,0,0,1-.46-.27.57.57,0,0,1,0-.79.78.78,0,0,1,.43-.23V27.7h.41s0,0,0,0a.56.56,0,0,0,0,.07.18.18,0,0,0,0,.06v.07a1,1,0,0,1,.58.37l-.24.31-.05,0,0-.06s0,0,0-.05a.53.53,0,0,0-.11-.09.35.35,0,0,0-.14-.06v.6a1.23,1.23,0,0,1,.5.27.57.57,0,0,1,.16.42.68.68,0,0,1-.17.45.87.87,0,0,1-.46.26v.22h-.41v-.22Z" transform="translate(-0.09)"/><polygon class="cls-6" points="16.49 34.37 15.23 34.37 15.23 34 16.07 34 16.07 31.65 15.23 31.65 15.23 31.27 16.49 31.27 16.49 34.37"/><path class="cls-5" d="M17.86,34a2,2,0,0,1-.42-.62,1.79,1.79,0,0,1-.15-.72,1.86,1.86,0,0,1,.14-.7,1.65,1.65,0,0,1,.41-.6,1.89,1.89,0,0,1,.62-.42l.11.35a1.58,1.58,0,0,0-.63.57,1.49,1.49,0,0,0-.22.81,1.6,1.6,0,0,0,.23.83,1.53,1.53,0,0,0,.64.57l-.11.35a2,2,0,0,1-.62-.42Z" transform="translate(-0.09)"/><polygon class="cls-4" points="18.94 34.03 20.74 34.03 20.74 34.41 18.94 34.41 18.94 34.03"/><polygon class="cls-6" points="21.34 31.27 22.61 31.27 22.61 31.65 21.77 31.65 21.77 34 22.61 34 22.61 34.37 21.34 34.37 21.34 31.27"/><path class="cls-7" d="M23.21,33.59l.34-.26,0,0,0,0a.17.17,0,0,0,0,.07l0,.08a.45.45,0,0,0,.36.17.35.35,0,0,0,.29-.13.53.53,0,0,0,.11-.37.58.58,0,0,0-.11-.37.35.35,0,0,0-.29-.13.43.43,0,0,0-.22.06.66.66,0,0,0-.18.19l-.29-.13.09-1.34h1.37v.39h-1l0,.49a1,1,0,0,1,.28,0,.77.77,0,0,1,.58.23.94.94,0,0,1,.21.65,1,1,0,0,1-.1.47.82.82,0,0,1-.29.32.94.94,0,0,1-.45.11.8.8,0,0,1-.81-.47Z" transform="translate(-0.09)"/><polygon class="cls-5" points="40.07 32.84 39.39 32.84 39.39 32.5 40.07 32.5 40.07 31.84 40.47 31.84 40.47 32.5 41.12 32.5 41.12 32.84 40.47 32.84 40.47 33.56 40.07 33.56 40.07 32.84"/><path class="cls-7" d="M42.48,33v-.76L42,33Zm0,.37h-1v-.29l1.1-1.63h.33V33h.34v.38h-.34V34h-.46v-.63Z" transform="translate(-0.09)"/><polygon class="cls-5" points="44.15 32.84 43.48 32.84 43.48 32.5 44.15 32.5 44.15 31.84 44.55 31.84 44.55 32.5 45.2 32.5 45.2 32.84 44.55 32.84 44.55 33.56 44.15 33.56 44.15 32.84"/><path class="cls-7" d="M46.74,33.53a.61.61,0,0,0,.1-.35.54.54,0,0,0-.1-.35.31.31,0,0,0-.24-.12.35.35,0,0,0-.21.07.42.42,0,0,0-.17.18,1,1,0,0,0,.11.51.32.32,0,0,0,.28.19.29.29,0,0,0,.23-.13Zm-.7.39a.92.92,0,0,1-.29-.44,1.85,1.85,0,0,1-.1-.65,2.2,2.2,0,0,1,.12-.76,1.12,1.12,0,0,1,.33-.49.8.8,0,0,1,.5-.17.88.88,0,0,1,.64.3L47,32l0,0,0,0a.14.14,0,0,0,0-.06.33.33,0,0,0-.06-.08.38.38,0,0,0-.22-.07.41.41,0,0,0-.31.17,1.06,1.06,0,0,0-.18.53.78.78,0,0,1,.2-.14.47.47,0,0,1,.22-.05.74.74,0,0,1,.67.42.93.93,0,0,1,.1.45,1,1,0,0,1-.11.46.85.85,0,0,1-.29.33.72.72,0,0,1-.85,0Z" transform="translate(-0.09)"/><polygon class="cls-5" points="48.24 32.84 47.56 32.84 47.56 32.5 48.24 32.5 48.24 31.84 48.63 31.84 48.63 32.5 49.28 32.5 49.28 32.84 48.63 32.84 48.63 33.56 48.24 33.56 48.24 32.84"/><path class="cls-7" d="M53.75,33.73l.19-.38,0,0,0,0s0,0,0,.07a.42.42,0,0,0,0,.1.57.57,0,0,0,.21.13.85.85,0,0,0,.29,0,.38.38,0,0,0,.29-.11.4.4,0,0,0,.1-.3.42.42,0,0,0-.11-.31.59.59,0,0,0-.39-.1h-.21V32.5a.81.81,0,0,0,.5-.09.36.36,0,0,0,.14-.29.31.31,0,0,0-.33-.33.75.75,0,0,0-.26.05.84.84,0,0,0-.24.16l-.26-.26a.94.94,0,0,1,.34-.26,1,1,0,0,1,.41-.08.88.88,0,0,1,.41.09.73.73,0,0,1,.28.24.6.6,0,0,1,.1.35.58.58,0,0,1-.1.35.56.56,0,0,1-.25.21.65.65,0,0,1,.3.22.7.7,0,0,1,.12.42.77.77,0,0,1-.1.4A.84.84,0,0,1,55,34a1,1,0,0,1-.46.11,1,1,0,0,1-.79-.35Z" transform="translate(-0.09)"/><polygon class="cls-5" points="56.4 32.84 55.72 32.84 55.72 32.5 56.4 32.5 56.4 31.84 56.8 31.84 56.8 32.5 57.45 32.5 57.45 32.84 56.8 32.84 56.8 33.56 56.4 33.56 56.4 32.84"/><path class="cls-7" d="M58.93,31.86H58v-.4h1.53v.23A20.29,20.29,0,0,0,58.64,34h-.49c.29-.88.56-1.59.78-2.14Z" transform="translate(-0.09)"/><polygon class="cls-5" points="60.48 32.84 59.8 32.84 59.8 32.5 60.48 32.5 60.48 31.84 60.88 31.84 60.88 32.5 61.53 32.5 61.53 32.84 60.88 32.84 60.88 33.56 60.48 33.56 60.48 32.84"/><path class="cls-7" d="M62,33.59l.34-.26,0,0,0,0a.17.17,0,0,0,0,.07.59.59,0,0,0,0,.08.45.45,0,0,0,.36.17.35.35,0,0,0,.29-.13.53.53,0,0,0,.11-.37.58.58,0,0,0-.11-.37.35.35,0,0,0-.29-.13.43.43,0,0,0-.22.06.66.66,0,0,0-.18.19l-.29-.13.09-1.34h1.37v.39h-1l0,.49a1,1,0,0,1,.28,0,.77.77,0,0,1,.58.23.94.94,0,0,1,.21.65,1,1,0,0,1-.1.47.82.82,0,0,1-.29.32.94.94,0,0,1-.45.11.81.81,0,0,1-.82-.47Z" transform="translate(-0.09)"/><polygon class="cls-6" points="94.05 34.37 92.79 34.37 92.79 34 93.62 34 93.62 31.65 92.79 31.65 92.79 31.27 94.05 31.27 94.05 34.37"/><polygon class="cls-5" points="95.18 32.84 94.5 32.84 94.5 32.5 95.18 32.5 95.18 31.84 95.57 31.84 95.57 32.5 96.23 32.5 96.23 32.84 95.57 32.84 95.57 33.56 95.18 33.56 95.18 32.84"/><polygon class="cls-4" points="96.49 34.03 98.3 34.03 98.3 34.41 96.49 34.41 96.49 34.03"/><polygon class="cls-6" points="98.9 31.27 100.16 31.27 100.16 31.65 99.32 31.65 99.32 34 100.16 34 100.16 34.37 98.9 34.37 98.9 31.27"/><path class="cls-7" d="M101.67,33v-.76l-.51.76Zm0,.37h-1v-.29l1.1-1.63h.33V33h.34v.38h-.34V34h-.46v-.63Z" transform="translate(-0.09)"/><polygon class="cls-6" points="16.49 37.99 15.23 37.99 15.23 37.63 16.07 37.63 16.07 35.28 15.23 35.28 15.23 34.9 16.49 34.9 16.49 37.99"/><polygon class="cls-5" points="17.62 36.47 16.94 36.47 16.94 36.12 17.62 36.12 17.62 35.47 18.02 35.47 18.02 36.12 18.67 36.12 18.67 36.47 18.02 36.47 18.02 37.19 17.62 37.19 17.62 36.47"/><polygon class="cls-4" points="18.94 37.66 20.74 37.66 20.74 38.04 18.94 38.04 18.94 37.66"/><polygon class="cls-6" points="21.34 34.9 22.61 34.9 22.61 35.28 21.77 35.28 21.77 37.63 22.61 37.63 22.61 37.99 21.34 37.99 21.34 34.9"/><path class="cls-7" d="M24.29,37.16a.61.61,0,0,0,.1-.35.54.54,0,0,0-.1-.35.31.31,0,0,0-.24-.12.35.35,0,0,0-.21.07.42.42,0,0,0-.17.18,1,1,0,0,0,.11.51.32.32,0,0,0,.28.19.32.32,0,0,0,.23-.13Zm-.7.39a.92.92,0,0,1-.29-.44,1.85,1.85,0,0,1-.1-.65,2.2,2.2,0,0,1,.12-.76,1.12,1.12,0,0,1,.33-.49.8.8,0,0,1,.5-.17.88.88,0,0,1,.64.3l-.29.3,0,0,0,0a.14.14,0,0,0,0-.06l-.06-.08a.38.38,0,0,0-.22-.07.41.41,0,0,0-.31.17,1.06,1.06,0,0,0-.18.53.78.78,0,0,1,.2-.14.47.47,0,0,1,.22-.05.74.74,0,0,1,.67.42.93.93,0,0,1,.1.45,1,1,0,0,1-.11.46.85.85,0,0,1-.29.33.72.72,0,0,1-.4.12.88.88,0,0,1-.46-.17Z" transform="translate(-0.09)"/><polygon class="cls-6" points="57.31 37.99 56.05 37.99 56.05 37.63 56.88 37.63 56.88 35.28 56.05 35.28 56.05 34.9 57.31 34.9 57.31 37.99"/><polygon class="cls-5" points="58.44 36.47 57.76 36.47 57.76 36.12 58.44 36.12 58.44 35.47 58.84 35.47 58.84 36.12 59.49 36.12 59.49 36.47 58.84 36.47 58.84 37.19 58.44 37.19 58.44 36.47"/><polygon class="cls-4" points="59.75 37.66 61.56 37.66 61.56 38.04 59.75 38.04 59.75 37.66"/><polygon class="cls-6" points="62.16 34.9 63.42 34.9 63.42 35.28 62.59 35.28 62.59 37.63 63.42 37.63 63.42 37.99 62.16 37.99 62.16 34.9"/><path class="cls-7" d="M64,37.36l.19-.38,0,0,0,0s0,0,0,.07a.42.42,0,0,0,0,.1.57.57,0,0,0,.21.13.85.85,0,0,0,.29,0,.37.37,0,0,0,.39-.41.42.42,0,0,0-.11-.31.59.59,0,0,0-.39-.1h-.21v-.37A.81.81,0,0,0,65,36a.36.36,0,0,0,.14-.29.31.31,0,0,0-.33-.33.75.75,0,0,0-.26,0,.84.84,0,0,0-.24.16L64,35.37a.94.94,0,0,1,.34-.26,1,1,0,0,1,.41-.08.88.88,0,0,1,.41.09.73.73,0,0,1,.28.24.6.6,0,0,1,.1.35.58.58,0,0,1-.1.35.56.56,0,0,1-.25.21.65.65,0,0,1,.3.22.7.7,0,0,1,.12.42.77.77,0,0,1-.1.4.84.84,0,0,1-.3.29,1,1,0,0,1-.46.11,1,1,0,0,1-.79-.35Z" transform="translate(-0.09)"/><polygon class="cls-5" points="66.6 36.47 65.93 36.47 65.93 36.12 66.6 36.12 66.6 35.47 67 35.47 67 36.12 67.65 36.12 67.65 36.47 67 36.47 67 37.19 66.6 37.19 66.6 36.47"/><path class="cls-7" d="M94.64,37.22,95,37l0,0,0,0a.17.17,0,0,0,0,.07.59.59,0,0,0,0,.08.45.45,0,0,0,.36.17.35.35,0,0,0,.29-.13.53.53,0,0,0,.11-.37.58.58,0,0,0-.11-.37.35.35,0,0,0-.29-.13.43.43,0,0,0-.22.06.66.66,0,0,0-.18.19l-.29-.13.09-1.34h1.37v.39h-1l0,.49a1,1,0,0,1,.28-.05.77.77,0,0,1,.58.23.94.94,0,0,1,.21.65,1,1,0,0,1-.1.47.82.82,0,0,1-.29.32.94.94,0,0,1-.45.11.83.83,0,0,1-.81-.47Z" transform="translate(-0.09)"/><polygon class="cls-5" points="97.22 36.47 96.54 36.47 96.54 36.12 97.22 36.12 97.22 35.47 97.61 35.47 97.61 36.12 98.27 36.12 98.27 36.47 97.61 36.47 97.61 37.19 97.22 37.19 97.22 36.47"/><path class="cls-7" d="M99.75,35.48h-1v-.4h1.53v.23a20.29,20.29,0,0,0-.84,2.31H99c.29-.87.55-1.58.78-2.14Z" transform="translate(-0.09)"/><polygon class="cls-6" points="102.21 37.99 100.95 37.99 100.95 37.63 101.79 37.63 101.79 35.28 100.95 35.28 100.95 34.9 102.21 34.9 102.21 37.99"/><polygon class="cls-5" points="103.34 36.47 102.66 36.47 102.66 36.12 103.34 36.12 103.34 35.47 103.74 35.47 103.74 36.12 104.39 36.12 104.39 36.47 103.74 36.47 103.74 37.19 103.34 37.19 103.34 36.47"/><polygon class="cls-4" points="104.66 37.66 106.46 37.66 106.46 38.04 104.66 38.04 104.66 37.66"/><polygon class="cls-6" points="15.22 38.52 16.48 38.52 16.48 38.9 15.65 38.9 15.65 41.26 16.48 41.26 16.48 41.62 15.22 41.62 15.22 38.52"/><path class="cls-7" d="M18.12,39.11h-1v-.4h1.53v.23a20.29,20.29,0,0,0-.84,2.31h-.49c.29-.87.55-1.59.78-2.14Z" transform="translate(-0.09)"/><polygon class="cls-5" points="19.66 40.1 18.98 40.1 18.98 39.75 19.66 39.75 19.66 39.1 20.06 39.1 20.06 39.75 20.71 39.75 20.71 40.1 20.06 40.1 20.06 40.81 19.66 40.81 19.66 40.1"/><path class="cls-7" d="M22.07,40.26V39.5l-.51.76Zm0,.37h-1v-.29l1.1-1.63h.33v1.54h.34v.38h-.34v.62h-.46v-.62Z" transform="translate(-0.09)"/><polygon class="cls-5" points="23.74 40.1 23.07 40.1 23.07 39.75 23.74 39.75 23.74 39.1 24.14 39.1 24.14 39.75 24.79 39.75 24.79 40.1 24.14 40.1 24.14 40.81 23.74 40.81 23.74 40.1"/><path class="cls-7" d="M61,40.78a.61.61,0,0,0,.1-.35.54.54,0,0,0-.1-.35.31.31,0,0,0-.24-.12.33.33,0,0,0-.21.07.42.42,0,0,0-.17.18,1,1,0,0,0,.11.51.32.32,0,0,0,.28.19.27.27,0,0,0,.23-.13Zm-.7.39a.92.92,0,0,1-.29-.44,1.85,1.85,0,0,1-.1-.65,2.2,2.2,0,0,1,.12-.76,1.12,1.12,0,0,1,.33-.49.8.8,0,0,1,.5-.17.88.88,0,0,1,.64.3l-.29.3,0,0,0,0a.14.14,0,0,0,0-.06l-.06-.08a.38.38,0,0,0-.22-.07.41.41,0,0,0-.31.17,1.06,1.06,0,0,0-.18.53.78.78,0,0,1,.2-.14.47.47,0,0,1,.22,0,.74.74,0,0,1,.67.42.93.93,0,0,1,.1.45,1,1,0,0,1-.11.46.85.85,0,0,1-.29.33.72.72,0,0,1-.4.12.74.74,0,0,1-.46-.17Z" transform="translate(-0.09)"/><polygon class="cls-5" points="62.52 40.1 61.84 40.1 61.84 39.75 62.52 39.75 62.52 39.1 62.92 39.1 62.92 39.75 63.57 39.75 63.57 40.1 62.92 40.1 62.92 40.81 62.52 40.81 62.52 40.1"/><polygon class="cls-7" points="64.57 39.23 64.13 39.36 64.02 39.08 64.71 38.71 65.02 38.71 65.02 41.26 64.57 41.26 64.57 39.23"/><polygon class="cls-5" points="66.6 40.1 65.93 40.1 65.93 39.75 66.6 39.75 66.6 39.1 67 39.1 67 39.75 67.65 39.75 67.65 40.1 67 40.1 67 40.81 66.6 40.81 66.6 40.1"/><path class="cls-7" d="M68,41l.19-.38,0,0,0,0s0,0,0,.07a.42.42,0,0,0,0,.1.57.57,0,0,0,.21.13.85.85,0,0,0,.29,0,.37.37,0,0,0,.39-.41.42.42,0,0,0-.11-.31.59.59,0,0,0-.39-.1h-.21v-.37a.81.81,0,0,0,.5-.09.36.36,0,0,0,.14-.29.31.31,0,0,0-.33-.33.75.75,0,0,0-.26.05.84.84,0,0,0-.24.16L68.08,39a.94.94,0,0,1,.34-.26,1,1,0,0,1,.41-.08.88.88,0,0,1,.41.09.73.73,0,0,1,.28.24.6.6,0,0,1,.1.35.58.58,0,0,1-.1.35.56.56,0,0,1-.25.21.65.65,0,0,1,.3.22.7.7,0,0,1,.12.42.77.77,0,0,1-.1.4.84.84,0,0,1-.3.29,1,1,0,0,1-.46.11A1,1,0,0,1,68,41Z" transform="translate(-0.09)"/><polygon class="cls-5" points="70.69 40.1 70.01 40.1 70.01 39.75 70.69 39.75 70.69 39.1 71.08 39.1 71.08 39.75 71.74 39.75 71.74 40.1 71.08 40.1 71.08 40.81 70.69 40.81 70.69 40.1"/><path class="cls-7" d="M73.2,40a.53.53,0,0,0,.15-.22,2,2,0,0,0,0-.41.38.38,0,0,0-.11-.2.28.28,0,0,0-.18-.06.35.35,0,0,0-.3.13.59.59,0,0,0-.11.38.49.49,0,0,0,.1.34A.36.36,0,0,0,73,40,.27.27,0,0,0,73.2,40Zm.59,0c0,1-.29,1.42-.87,1.42a1.14,1.14,0,0,1-.4-.08,1.16,1.16,0,0,1-.36-.23l.27-.31,0,0,0,0a.08.08,0,0,0,0,0,.22.22,0,0,0,.07.06.61.61,0,0,0,.3.08.37.37,0,0,0,.25-.07.44.44,0,0,0,.14-.22,1.79,1.79,0,0,0,.06-.4.6.6,0,0,1-.43.2.72.72,0,0,1-.37-.11.87.87,0,0,1-.29-.31,1,1,0,0,1-.11-.46.94.94,0,0,1,.11-.45.82.82,0,0,1,.74-.44c.55,0,.81.44.81,1.27Z" transform="translate(-0.09)"/><polygon class="cls-6" points="75.68 41.62 74.42 41.62 74.42 41.26 75.25 41.26 75.25 38.9 74.42 38.9 74.42 38.52 75.68 38.52 75.68 41.62"/><polygon class="cls-5" points="76.81 40.1 76.13 40.1 76.13 39.75 76.81 39.75 76.81 39.1 77.2 39.1 77.2 39.75 77.86 39.75 77.86 40.1 77.2 40.1 77.2 40.81 76.81 40.81 76.81 40.1"/><polygon class="cls-4" points="98.53 41.29 100.34 41.29 100.34 41.67 98.53 41.67 98.53 41.29"/><polygon class="cls-6" points="100.94 38.52 102.2 38.52 102.2 38.9 101.37 38.9 101.37 41.26 102.2 41.26 102.2 41.62 100.94 41.62 100.94 38.52"/><path class="cls-7" d="M103.85,39.53a.44.44,0,0,0,.07-.21.25.25,0,0,0-.09-.19.32.32,0,0,0-.21-.08.28.28,0,0,0-.2.08.26.26,0,0,0-.08.19q0,.21.33.39a.77.77,0,0,0,.18-.18Zm0,1.29a.33.33,0,0,0,.1-.24.4.4,0,0,0-.11-.27.83.83,0,0,0-.3-.2.56.56,0,0,0-.23.2.43.43,0,0,0-.09.26.34.34,0,0,0,.11.25.36.36,0,0,0,.26.11.41.41,0,0,0,.26-.11Zm-.7.41a.81.81,0,0,1-.31-.27.7.7,0,0,1-.11-.37.67.67,0,0,1,.13-.39,1,1,0,0,1,.34-.3.88.88,0,0,1-.25-.26.54.54,0,0,1-.1-.31A.59.59,0,0,1,103,39a.68.68,0,0,1,.28-.25.85.85,0,0,1,.76,0,.78.78,0,0,1,.27.24.56.56,0,0,1,0,.65,1,1,0,0,1-.27.26,1,1,0,0,1,.33.3.68.68,0,0,1,0,.77.91.91,0,0,1-.31.27.88.88,0,0,1-.43.1.89.89,0,0,1-.44-.1Z" transform="translate(-0.09)"/><polygon class="cls-5" points="105.38 40.1 104.7 40.1 104.7 39.75 105.38 39.75 105.38 39.1 105.78 39.1 105.78 39.75 106.43 39.75 106.43 40.1 105.78 40.1 105.78 40.81 105.38 40.81 105.38 40.1"/><path class="cls-7" d="M106.9,40.92c.33-.32.57-.55.71-.7a2.72,2.72,0,0,0,.33-.42.83.83,0,0,0,.11-.4.34.34,0,0,0-.1-.26.4.4,0,0,0-.27-.09.53.53,0,0,0-.41.16l0,.08a.15.15,0,0,0,0,.07l0,0,0,0-.3-.23a1,1,0,0,1,.36-.36,1,1,0,0,1,.48-.13.91.91,0,0,1,.41.09.7.7,0,0,1,.38.65.92.92,0,0,1-.1.42,2.28,2.28,0,0,1-.27.39l-.49.51-.16.15h.93s0,0,.06,0h0v.42h-1.58v-.32Z" transform="translate(-0.09)"/><polygon class="cls-5" points="109.46 40.1 108.79 40.1 108.79 39.75 109.46 39.75 109.46 39.1 109.86 39.1 109.86 39.75 110.51 39.75 110.51 40.1 109.86 40.1 109.86 40.81 109.46 40.81 109.46 40.1"/><path class="cls-7" d="M110.9,41l.19-.38,0,0,0,0s0,0,0,.07a.42.42,0,0,0,0,.1.57.57,0,0,0,.21.13.85.85,0,0,0,.29,0,.37.37,0,0,0,.39-.41.42.42,0,0,0-.11-.31.59.59,0,0,0-.39-.1h-.21v-.37a.81.81,0,0,0,.5-.09.36.36,0,0,0,.14-.29.31.31,0,0,0-.33-.33.75.75,0,0,0-.26.05.84.84,0,0,0-.24.16l-.26-.26a.94.94,0,0,1,.34-.26,1,1,0,0,1,.41-.08.88.88,0,0,1,.41.09.73.73,0,0,1,.28.24.6.6,0,0,1,.1.35.58.58,0,0,1-.1.35.56.56,0,0,1-.25.21.65.65,0,0,1,.3.22.7.7,0,0,1,.12.42.77.77,0,0,1-.1.4.84.84,0,0,1-.3.29,1,1,0,0,1-.46.11,1,1,0,0,1-.79-.35Z" transform="translate(-0.09)"/><polygon class="cls-5" points="113.55 40.1 112.87 40.1 112.87 39.75 113.55 39.75 113.55 39.1 113.94 39.1 113.94 39.75 114.59 39.75 114.59 40.1 113.94 40.1 113.94 40.81 113.55 40.81 113.55 40.1"/><path class="cls-7" d="M115,41l.19-.38,0,0,0,0s0,0,0,.07a.42.42,0,0,0,0,.1.57.57,0,0,0,.21.13.85.85,0,0,0,.29,0,.37.37,0,0,0,.39-.41.42.42,0,0,0-.11-.31.59.59,0,0,0-.39-.1h-.21v-.37a.81.81,0,0,0,.5-.09.36.36,0,0,0,.14-.29.31.31,0,0,0-.33-.33.75.75,0,0,0-.26.05.84.84,0,0,0-.24.16L115,39a.94.94,0,0,1,.34-.26,1,1,0,0,1,.41-.08.88.88,0,0,1,.41.09.73.73,0,0,1,.28.24.6.6,0,0,1,.1.35.58.58,0,0,1-.1.35.56.56,0,0,1-.25.21.65.65,0,0,1,.3.22.7.7,0,0,1,.12.42.77.77,0,0,1-.1.4.84.84,0,0,1-.3.29,1,1,0,0,1-.46.11A1,1,0,0,1,115,41Z" transform="translate(-0.09)"/><polygon class="cls-6" points="16.49 45.25 15.23 45.25 15.23 44.88 16.07 44.88 16.07 42.53 15.23 42.53 15.23 42.15 16.49 42.15 16.49 45.25"/><polygon class="cls-5" points="17.62 43.73 16.94 43.73 16.94 43.38 17.62 43.38 17.62 42.72 18.02 42.72 18.02 43.38 18.67 43.38 18.67 43.73 18.02 43.73 18.02 44.44 17.62 44.44 17.62 43.73"/><polygon class="cls-4" points="18.94 44.92 20.74 44.92 20.74 45.3 18.94 45.3 18.94 44.92"/><polygon class="cls-6" points="21.34 42.15 22.61 42.15 22.61 42.53 21.77 42.53 21.77 44.88 22.61 44.88 22.61 45.25 21.34 45.25 21.34 42.15"/><path class="cls-7" d="M24.24,42.74h-1v-.4h1.53v.23A20.29,20.29,0,0,0,24,44.88h-.49c.29-.87.55-1.59.78-2.14Z" transform="translate(-0.09)"/><polygon class="cls-6" points="63.44 45.25 62.17 45.25 62.17 44.88 63.01 44.88 63.01 42.53 62.17 42.53 62.17 42.15 63.44 42.15 63.44 45.25"/><polygon class="cls-5" points="64.56 43.73 63.89 43.73 63.89 43.38 64.56 43.38 64.56 42.72 64.96 42.72 64.96 43.38 65.61 43.38 65.61 43.73 64.96 43.73 64.96 44.44 64.56 44.44 64.56 43.73"/><polygon class="cls-4" points="65.88 44.92 67.68 44.92 67.68 45.3 65.88 45.3 65.88 44.92"/><polygon class="cls-6" points="68.28 42.15 69.55 42.15 69.55 42.53 68.71 42.53 68.71 44.88 69.55 44.88 69.55 45.25 68.28 45.25 68.28 42.15"/><path class="cls-7" d="M70.15,44.48l.34-.26,0,0,0,0a.17.17,0,0,0,0,.07l0,.08a.45.45,0,0,0,.36.17.35.35,0,0,0,.29-.13.53.53,0,0,0,.11-.37.58.58,0,0,0-.11-.37.35.35,0,0,0-.29-.13.43.43,0,0,0-.22.06.66.66,0,0,0-.18.19l-.29-.13.09-1.34h1.37v.39h-1l0,.49a1,1,0,0,1,.28,0,.77.77,0,0,1,.58.23.94.94,0,0,1,.21.65,1,1,0,0,1-.1.47.82.82,0,0,1-.29.32A.94.94,0,0,1,71,45a.83.83,0,0,1-.81-.47Z" transform="translate(-0.09)"/><polygon class="cls-6" points="73.64 45.25 72.38 45.25 72.38 44.88 73.21 44.88 73.21 42.53 72.38 42.53 72.38 42.15 73.64 42.15 73.64 45.25"/><polygon class="cls-5" points="74.77 43.73 74.09 43.73 74.09 43.38 74.77 43.38 74.77 42.72 75.16 42.72 75.16 43.38 75.82 43.38 75.82 43.73 75.16 43.73 75.16 44.44 74.77 44.44 74.77 43.73"/><polygon class="cls-4" points="76.08 44.92 77.89 44.92 77.89 45.3 76.08 45.3 76.08 44.92"/><polygon class="cls-6" points="78.49 42.15 79.75 42.15 79.75 42.53 78.92 42.53 78.92 44.88 79.75 44.88 79.75 45.25 78.49 45.25 78.49 42.15"/><polygon class="cls-7" points="101.31 42.86 100.87 42.99 100.76 42.71 101.45 42.34 101.76 42.34 101.76 44.88 101.31 44.88 101.31 42.86"/><polygon class="cls-6" points="104.26 45.25 102.99 45.25 102.99 44.88 103.83 44.88 103.83 42.53 102.99 42.53 102.99 42.15 104.26 42.15 104.26 45.25"/><polygon class="cls-5" points="105.38 43.73 104.7 43.73 104.7 43.38 105.38 43.38 105.38 42.72 105.78 42.72 105.78 43.38 106.43 43.38 106.43 43.73 105.78 43.73 105.78 44.44 105.38 44.44 105.38 43.73"/><polygon class="cls-4" points="106.7 44.92 108.5 44.92 108.5 45.3 106.7 45.3 106.7 44.92"/><polygon class="cls-6" points="109.1 42.15 110.37 42.15 110.37 42.53 109.53 42.53 109.53 44.88 110.37 44.88 110.37 45.25 109.1 45.25 109.1 42.15"/><path class="cls-7" d="M111.88,43.89v-.76l-.51.76Zm0,.36h-1V44l1.1-1.63h.33v1.54h.34v.38h-.34v.62h-.46v-.62Z" transform="translate(-0.09)"/><polygon class="cls-5" points="113.55 43.73 112.87 43.73 112.87 43.38 113.55 43.38 113.55 42.72 113.94 42.72 113.94 43.38 114.59 43.38 114.59 43.73 113.94 43.73 113.94 44.44 113.55 44.44 113.55 43.73"/><path class="cls-7" d="M116,43.89v-.76l-.51.76Zm0,.36h-1V44l1.1-1.63h.33v1.54h.34v.38h-.34v.62h-.46v-.62Z" transform="translate(-0.09)"/><polygon class="cls-5" points="117.63 43.73 116.95 43.73 116.95 43.38 117.63 43.38 117.63 42.72 118.02 42.72 118.02 43.38 118.68 43.38 118.68 43.73 118.02 43.73 118.02 44.44 117.63 44.44 117.63 43.73"/><path class="cls-7" d="M16,47.52v-.76l-.51.76Zm0,.36H15V47.6L16.07,46h.33v1.54h.34v.38H16.4v.62h-.46v-.63Z" transform="translate(-0.09)"/><polygon class="cls-5" points="17.62 47.36 16.94 47.36 16.94 47.01 17.62 47.01 17.62 46.35 18.02 46.35 18.02 47.01 18.67 47.01 18.67 47.36 18.02 47.36 18.02 48.07 17.62 48.07 17.62 47.36"/><path class="cls-7" d="M20,47.52v-.76l-.51.76Zm0,.36h-1V47.6L20.15,46h.33v1.54h.34v.38h-.34v.62H20v-.63Z" transform="translate(-0.09)"/><polygon class="cls-6" points="22.62 48.88 21.35 48.88 21.35 48.51 22.19 48.51 22.19 46.16 21.35 46.16 21.35 45.78 22.62 45.78 22.62 48.88"/><polygon class="cls-5" points="23.74 47.36 23.07 47.36 23.07 47.01 23.74 47.01 23.74 46.35 24.14 46.35 24.14 47.01 24.79 47.01 24.79 47.36 24.14 47.36 24.14 48.07 23.74 48.07 23.74 47.36"/><polygon class="cls-4" points="72 48.54 73.8 48.54 73.8 48.92 72 48.92 72 48.54"/><polygon class="cls-6" points="74.4 45.78 75.67 45.78 75.67 46.16 74.83 46.16 74.83 48.51 75.67 48.51 75.67 48.88 74.4 48.88 74.4 45.78"/><path class="cls-7" d="M76.2,48.25l.19-.38,0,0,0,0s0,0,0,.07a.42.42,0,0,0,0,.1.57.57,0,0,0,.21.13.85.85,0,0,0,.29,0,.37.37,0,0,0,.39-.41.42.42,0,0,0-.11-.31.59.59,0,0,0-.39-.1h-.21V47a.81.81,0,0,0,.5-.09.36.36,0,0,0,.14-.29.31.31,0,0,0-.33-.33.75.75,0,0,0-.26,0,.84.84,0,0,0-.24.16l-.26-.26a.94.94,0,0,1,.34-.26,1,1,0,0,1,.41-.08.88.88,0,0,1,.41.09.73.73,0,0,1,.28.24.6.6,0,0,1,.1.35.58.58,0,0,1-.1.35.56.56,0,0,1-.25.21.65.65,0,0,1,.3.22.7.7,0,0,1,.12.42.77.77,0,0,1-.1.4.84.84,0,0,1-.3.29,1,1,0,0,1-.46.11,1,1,0,0,1-.79-.35Z" transform="translate(-0.09)"/><polygon class="cls-5" points="78.85 47.36 78.17 47.36 78.17 47.01 78.85 47.01 78.85 46.35 79.25 46.35 79.25 47.01 79.9 47.01 79.9 47.36 79.25 47.36 79.25 48.07 78.85 48.07 78.85 47.36"/><path class="cls-7" d="M81.26,47.52v-.76l-.51.76Zm0,.36h-1V47.6L81.38,46h.33v1.54h.34v.38h-.34v.62h-.46v-.63Z" transform="translate(-0.09)"/><polygon class="cls-5" points="82.93 47.36 82.25 47.36 82.25 47.01 82.93 47.01 82.93 46.35 83.33 46.35 83.33 47.01 83.98 47.01 83.98 47.36 83.33 47.36 83.33 48.07 82.93 48.07 82.93 47.36"/><path class="cls-7" d="M112,46.37h-1V46h1.53v.23a20.29,20.29,0,0,0-.84,2.31h-.49c.29-.87.55-1.59.78-2.14Z" transform="translate(-0.09)"/><polygon class="cls-5" points="113.55 47.36 112.87 47.36 112.87 47.01 113.55 47.01 113.55 46.35 113.94 46.35 113.94 47.01 114.59 47.01 114.59 47.36 113.94 47.36 113.94 48.07 113.55 48.07 113.55 47.36"/><path class="cls-7" d="M116.14,48a.61.61,0,0,0,.1-.35.54.54,0,0,0-.1-.35.31.31,0,0,0-.24-.12.33.33,0,0,0-.21.07.42.42,0,0,0-.17.18,1,1,0,0,0,.11.51.32.32,0,0,0,.28.19.29.29,0,0,0,.23-.13Zm-.7.39a.92.92,0,0,1-.29-.44,2.11,2.11,0,0,1-.1-.65,2.2,2.2,0,0,1,.12-.76,1.12,1.12,0,0,1,.33-.49.8.8,0,0,1,.5-.17.88.88,0,0,1,.64.3l-.29.3,0,0,0,0a.14.14,0,0,0,0-.06.33.33,0,0,0-.06-.08.38.38,0,0,0-.22-.07.41.41,0,0,0-.31.17,1.06,1.06,0,0,0-.18.53.78.78,0,0,1,.2-.14.47.47,0,0,1,.22,0,.74.74,0,0,1,.67.42.93.93,0,0,1,.1.45,1,1,0,0,1-.11.46.85.85,0,0,1-.29.33.72.72,0,0,1-.86,0Z" transform="translate(-0.09)"/><polygon class="cls-5" points="117.63 47.36 116.95 47.36 116.95 47.01 117.63 47.01 117.63 46.35 118.02 46.35 118.02 47.01 118.68 47.01 118.68 47.36 118.02 47.36 118.02 48.07 117.63 48.07 117.63 47.36"/><path class="cls-7" d="M119.13,48.11l.34-.26,0,0,0,0a.17.17,0,0,0,0,.07l0,.08a.45.45,0,0,0,.36.17.35.35,0,0,0,.29-.13.53.53,0,0,0,.11-.37.58.58,0,0,0-.11-.37.35.35,0,0,0-.29-.13.43.43,0,0,0-.22.06.66.66,0,0,0-.18.19l-.29-.13.09-1.34h1.37v.39h-1l0,.49a1,1,0,0,1,.28-.05.77.77,0,0,1,.58.23.94.94,0,0,1,.21.65,1,1,0,0,1-.1.47.82.82,0,0,1-.29.32.94.94,0,0,1-.45.11.83.83,0,0,1-.81-.47Z" transform="translate(-0.09)"/><polygon class="cls-5" points="121.71 47.36 121.03 47.36 121.03 47.01 121.71 47.01 121.71 46.35 122.11 46.35 122.11 47.01 122.76 47.01 122.76 47.36 122.11 47.36 122.11 48.07 121.71 48.07 121.71 47.36"/><path class="cls-7" d="M15.06,51.81c.33-.32.57-.55.71-.7a2.72,2.72,0,0,0,.33-.42.83.83,0,0,0,.11-.4.34.34,0,0,0-.1-.26.4.4,0,0,0-.27-.09.53.53,0,0,0-.41.16l0,.08a.15.15,0,0,0,0,.07l0,0,0,0L15,50a1,1,0,0,1,.36-.36,1,1,0,0,1,.48-.13.91.91,0,0,1,.41.09.7.7,0,0,1,.38.65.92.92,0,0,1-.1.42,2.28,2.28,0,0,1-.27.39l-.49.51-.16.15h.93l.06,0h0v.42H15.06v-.32Z" transform="translate(-0.09)"/><polygon class="cls-6" points="18.54 52.51 17.27 52.51 17.27 52.14 18.11 52.14 18.11 49.79 17.27 49.79 17.27 49.41 18.54 49.41 18.54 52.51"/><polygon class="cls-5" points="19.66 50.98 18.98 50.98 18.98 50.64 19.66 50.64 19.66 49.98 20.06 49.98 20.06 50.64 20.71 50.64 20.71 50.98 20.06 50.98 20.06 51.7 19.66 51.7 19.66 50.98"/><polygon class="cls-4" points="20.98 52.17 22.78 52.17 22.78 52.55 20.98 52.55 20.98 52.17"/><polygon class="cls-6" points="23.38 49.41 24.65 49.41 24.65 49.79 23.81 49.79 23.81 52.14 24.65 52.14 24.65 52.51 23.38 52.51 23.38 49.41"/><polygon class="cls-7" points="40.08 50.12 39.64 50.25 39.53 49.97 40.22 49.6 40.53 49.6 40.53 52.14 40.08 52.14 40.08 50.12"/><polygon class="cls-6" points="43.03 52.51 41.76 52.51 41.76 52.14 42.6 52.14 42.6 49.79 41.76 49.79 41.76 49.41 43.03 49.41 43.03 52.51"/><polygon class="cls-5" points="44.15 50.98 43.48 50.98 43.48 50.64 44.15 50.64 44.15 49.98 44.55 49.98 44.55 50.64 45.2 50.64 45.2 50.98 44.55 50.98 44.55 51.7 44.15 51.7 44.15 50.98"/><polygon class="cls-4" points="45.47 52.17 47.27 52.17 47.27 52.55 45.47 52.55 45.47 52.17"/><polygon class="cls-6" points="47.87 49.41 49.14 49.41 49.14 49.79 48.3 49.79 48.3 52.14 49.14 52.14 49.14 52.51 47.87 52.51 47.87 49.41"/><path class="cls-7" d="M76.29,51.81c.33-.32.57-.55.71-.7a2.72,2.72,0,0,0,.33-.42.83.83,0,0,0,.11-.4.34.34,0,0,0-.1-.26.4.4,0,0,0-.27-.09.53.53,0,0,0-.41.16l0,.08a.15.15,0,0,0,0,.07l0,0,0,0-.3-.23a1,1,0,0,1,.36-.36,1,1,0,0,1,.48-.13.91.91,0,0,1,.41.09.7.7,0,0,1,.38.65.92.92,0,0,1-.1.42,2.28,2.28,0,0,1-.27.39L77,51.6l-.16.15h.93l.06,0h0v.42H76.3v-.32Z" transform="translate(-0.09)"/><path class="cls-7" d="M79.4,51.67a.61.61,0,0,0,.1-.35.54.54,0,0,0-.1-.35.31.31,0,0,0-.24-.12.33.33,0,0,0-.21.07.42.42,0,0,0-.17.18,1,1,0,0,0,.11.51.32.32,0,0,0,.28.19.29.29,0,0,0,.23-.13Zm-.7.39a.92.92,0,0,1-.29-.44,1.85,1.85,0,0,1-.1-.65,2.2,2.2,0,0,1,.12-.76,1.12,1.12,0,0,1,.33-.49.8.8,0,0,1,.5-.17.88.88,0,0,1,.64.3l-.29.3,0,0,0,0a.14.14,0,0,0,0-.06L79.47,50a.38.38,0,0,0-.22-.07.41.41,0,0,0-.31.17,1.06,1.06,0,0,0-.18.53.78.78,0,0,1,.2-.14.49.49,0,0,1,.22-.06.74.74,0,0,1,.67.42.93.93,0,0,1,.1.45,1,1,0,0,1-.11.46.85.85,0,0,1-.29.33.72.72,0,0,1-.4.12.66.66,0,0,1-.45-.15Z" transform="translate(-0.09)"/><polygon class="cls-6" points="81.8 52.51 80.54 52.51 80.54 52.14 81.38 52.14 81.38 49.79 80.54 49.79 80.54 49.41 81.8 49.41 81.8 52.51"/><polygon class="cls-5" points="82.93 50.98 82.25 50.98 82.25 50.64 82.93 50.64 82.93 49.98 83.33 49.98 83.33 50.64 83.98 50.64 83.98 50.98 83.33 50.98 83.33 51.7 82.93 51.7 82.93 50.98"/><polygon class="cls-4" points="84.25 52.17 86.05 52.17 86.05 52.55 84.25 52.55 84.25 52.17"/><polygon class="cls-6" points="115.22 49.41 116.49 49.41 116.49 49.79 115.65 49.79 115.65 52.14 116.49 52.14 116.49 52.51 115.22 52.51 115.22 49.41"/><path class="cls-7" d="M118,51.14v-.76l-.51.76Zm0,.37h-1v-.29l1.1-1.63h.33v1.54h.34v.38h-.34v.62H118v-.62Z" transform="translate(-0.09)"/><polygon class="cls-6" points="120.58 52.51 119.32 52.51 119.32 52.14 120.15 52.14 120.15 49.79 119.32 49.79 119.32 49.41 120.58 49.41 120.58 52.51"/><path class="cls-5" d="M121.49,52.59l-.11-.35a1.48,1.48,0,0,0,.64-.57,1.51,1.51,0,0,0,.23-.83A1.45,1.45,0,0,0,122,50a1.58,1.58,0,0,0-.63-.57l.11-.35a1.89,1.89,0,0,1,.62.42,2,2,0,0,1,.41.6,1.9,1.9,0,0,1,.14.7,1.86,1.86,0,0,1-.15.72,2,2,0,0,1-.42.62,1.55,1.55,0,0,1-.62.42Z" transform="translate(-0.09)"/><path class="cls-5" d="M124,52.17a2,2,0,0,1-.42-.62,1.79,1.79,0,0,1-.15-.72,1.86,1.86,0,0,1,.14-.7,1.65,1.65,0,0,1,.41-.6,1.89,1.89,0,0,1,.62-.42l.11.35a1.58,1.58,0,0,0-.63.57,1.49,1.49,0,0,0-.22.81,1.6,1.6,0,0,0,.23.83,1.53,1.53,0,0,0,.64.57l-.11.35a1.71,1.71,0,0,1-.62-.42Z" transform="translate(-0.09)"/><path class="cls-5" d="M15.36,56.22l-.11-.35a1.48,1.48,0,0,0,.64-.57,1.51,1.51,0,0,0,.23-.83,1.45,1.45,0,0,0-.22-.81,1.58,1.58,0,0,0-.63-.57l.11-.35a1.89,1.89,0,0,1,.62.42,2,2,0,0,1,.41.6,1.9,1.9,0,0,1,.14.7,1.86,1.86,0,0,1-.15.72,2,2,0,0,1-.42.62,1.79,1.79,0,0,1-.62.42Z" transform="translate(-0.09)"/><polygon class="cls-6" points="17.26 53.04 18.52 53.04 18.52 53.42 17.69 53.42 17.69 55.77 18.52 55.77 18.52 56.14 17.26 56.14 17.26 53.04"/><polygon class="cls-4" points="18.94 55.8 20.74 55.8 20.74 56.18 18.94 56.18 18.94 55.8"/><polygon class="cls-6" points="21.34 53.04 22.61 53.04 22.61 53.42 21.77 53.42 21.77 55.77 22.61 55.77 22.61 56.14 21.34 56.14 21.34 53.04"/><polygon class="cls-7" points="23.75 53.74 23.32 53.87 23.21 53.6 23.9 53.23 24.2 53.23 24.2 55.77 23.75 55.77 23.75 53.74"/><polygon class="cls-5" points="40.07 54.61 39.39 54.61 39.39 54.27 40.07 54.27 40.07 53.61 40.47 53.61 40.47 54.27 41.12 54.27 41.12 54.61 40.47 54.61 40.47 55.33 40.07 55.33 40.07 54.61"/><path class="cls-7" d="M41.59,55.43c.33-.32.57-.55.71-.7a2.72,2.72,0,0,0,.33-.42.83.83,0,0,0,.11-.4.34.34,0,0,0-.1-.26.4.4,0,0,0-.27-.09.53.53,0,0,0-.41.16l-.05.08a.15.15,0,0,0,0,.07l0,0,0,0-.3-.23a1,1,0,0,1,.36-.36,1,1,0,0,1,.48-.13.91.91,0,0,1,.41.09.7.7,0,0,1,.38.65.92.92,0,0,1-.1.42,2.28,2.28,0,0,1-.27.39l-.49.51-.16.15h.93l.06,0h0v.42H41.6v-.32Z" transform="translate(-0.09)"/><path class="cls-7" d="M43.61,55.36,44,55.1l0,0,0,0a.17.17,0,0,0,0,.07.59.59,0,0,0,0,.08.45.45,0,0,0,.36.17.35.35,0,0,0,.29-.13.53.53,0,0,0,.11-.37.58.58,0,0,0-.11-.37.35.35,0,0,0-.29-.13.43.43,0,0,0-.22.06.66.66,0,0,0-.18.19l-.29-.13.09-1.34h1.37v.39h-1l0,.49a1,1,0,0,1,.28-.05.77.77,0,0,1,.58.23.92.92,0,0,1,.21.65,1,1,0,0,1-.1.47.82.82,0,0,1-.29.32.94.94,0,0,1-.45.11.82.82,0,0,1-.81-.47Z" transform="translate(-0.09)"/><polygon class="cls-6" points="47.11 56.14 45.84 56.14 45.84 55.77 46.68 55.77 46.68 53.42 45.84 53.42 45.84 53.04 47.11 53.04 47.11 56.14"/><polygon class="cls-5" points="48.24 54.61 47.56 54.61 47.56 54.27 48.24 54.27 48.24 53.61 48.63 53.61 48.63 54.27 49.28 54.27 49.28 54.61 48.63 54.61 48.63 55.33 48.24 55.33 48.24 54.61"/><polygon class="cls-4" points="53.63 55.8 55.44 55.8 55.44 56.18 53.63 56.18 53.63 55.8"/><polygon class="cls-6" points="56.04 53.04 57.3 53.04 57.3 53.42 56.46 53.42 56.46 55.77 57.3 55.77 57.3 56.14 56.04 56.14 56.04 53.04"/><polygon class="cls-7" points="58.45 53.74 58.01 53.87 57.9 53.6 58.59 53.23 58.9 53.23 58.9 55.77 58.45 55.77 58.45 53.74"/><polygon class="cls-6" points="61.4 56.14 60.13 56.14 60.13 55.77 60.97 55.77 60.97 53.42 60.13 53.42 60.13 53.04 61.4 53.04 61.4 56.14"/><polygon class="cls-5" points="62.52 54.61 61.84 54.61 61.84 54.27 62.52 54.27 62.52 53.61 62.92 53.61 62.92 54.27 63.57 54.27 63.57 54.61 62.92 54.61 62.92 55.33 62.52 55.33 62.52 54.61"/><path class="cls-5" d="M77.05,55.8a2,2,0,0,1-.42-.62,1.79,1.79,0,0,1-.15-.72,1.86,1.86,0,0,1,.14-.7,1.65,1.65,0,0,1,.41-.6,1.89,1.89,0,0,1,.62-.42l.11.35a1.58,1.58,0,0,0-.63.57,1.49,1.49,0,0,0-.22.81,1.6,1.6,0,0,0,.23.83,1.53,1.53,0,0,0,.64.57l-.11.35a1.89,1.89,0,0,1-.62-.42Z" transform="translate(-0.09)"/><polygon class="cls-6" points="78.49 53.04 79.75 53.04 79.75 53.42 78.92 53.42 78.92 55.77 79.75 55.77 79.75 56.14 78.49 56.14 78.49 53.04"/><polygon class="cls-6" points="81.8 56.14 80.54 56.14 80.54 55.77 81.38 55.77 81.38 53.42 80.54 53.42 80.54 53.04 81.8 53.04 81.8 56.14"/><polygon class="cls-5" points="82.93 54.61 82.25 54.61 82.25 54.27 82.93 54.27 82.93 53.61 83.33 53.61 83.33 54.27 83.98 54.27 83.98 54.61 83.33 54.61 83.33 55.33 82.93 55.33 82.93 54.61"/><polygon class="cls-4" points="84.25 55.8 86.05 55.8 86.05 56.18 84.25 56.18 84.25 55.8"/><polygon class="cls-6" points="92.77 53.04 94.04 53.04 94.04 53.42 93.2 53.42 93.2 55.77 94.04 55.77 94.04 56.14 92.77 56.14 92.77 53.04"/><path class="cls-4" d="M95.92,55.05c0-.13-.08-.22-.24-.28v.58a.31.31,0,0,0,.24-.3Zm-.61-1.32a.25.25,0,0,0-.14.08.22.22,0,0,0,0,.28.3.3,0,0,0,.14.1v-.46Zm0,2a.92.92,0,0,1-.36-.13,1,1,0,0,1-.31-.24l.25-.35a.09.09,0,0,1,.06,0l0,.06s0,0,0,0a.58.58,0,0,0,.33.2v-.73a1.19,1.19,0,0,1-.46-.27.57.57,0,0,1,0-.79.78.78,0,0,1,.43-.23V53.1h.41s0,0,0,0a.56.56,0,0,0,0,.07.18.18,0,0,0,0,.06v.07a1,1,0,0,1,.58.37L96,54l0,0a.16.16,0,0,1,0-.06l0,0a.53.53,0,0,0-.11-.09.35.35,0,0,0-.14-.06v.6a1.23,1.23,0,0,1,.5.27.57.57,0,0,1,.16.42.68.68,0,0,1-.17.45.87.87,0,0,1-.46.26V56H95.3v-.22Z" transform="translate(-0.09)"/><polygon class="cls-6" points="98.13 56.14 96.87 56.14 96.87 55.77 97.7 55.77 97.7 53.42 96.87 53.42 96.87 53.04 98.13 53.04 98.13 56.14"/><path class="cls-5" d="M99,56.22l-.11-.35a1.48,1.48,0,0,0,.64-.57,1.51,1.51,0,0,0,.23-.83,1.45,1.45,0,0,0-.22-.81,1.58,1.58,0,0,0-.63-.57l.11-.35a1.89,1.89,0,0,1,.62.42,2,2,0,0,1,.41.6,1.9,1.9,0,0,1,.14.7,1.86,1.86,0,0,1-.15.72,2,2,0,0,1-.42.62,1.79,1.79,0,0,1-.62.42Z" transform="translate(-0.09)"/><polygon class="cls-6" points="100.94 53.04 102.2 53.04 102.2 53.42 101.37 53.42 101.37 55.77 102.2 55.77 102.2 56.14 100.94 56.14 100.94 53.04"/><polygon class="cls-7" points="115.6 53.74 115.16 53.87 115.05 53.6 115.74 53.23 116.04 53.23 116.04 55.77 115.6 55.77 115.6 53.74"/><path class="cls-7" d="M118,54.77V54l-.51.76Zm0,.37h-1v-.29l1.1-1.63h.33v1.54h.34v.38h-.34v.62H118v-.62Z" transform="translate(-0.09)"/><polygon class="cls-6" points="120.58 56.14 119.32 56.14 119.32 55.77 120.15 55.77 120.15 53.42 119.32 53.42 119.32 53.04 120.58 53.04 120.58 56.14"/><polygon class="cls-6" points="122.62 56.14 121.36 56.14 121.36 55.77 122.2 55.77 122.2 53.42 121.36 53.42 121.36 53.04 122.62 53.04 122.62 56.14"/><path class="cls-5" d="M124,55.8a2,2,0,0,1-.42-.62,1.79,1.79,0,0,1-.15-.72,1.86,1.86,0,0,1,.14-.7,1.65,1.65,0,0,1,.41-.6,1.89,1.89,0,0,1,.62-.42l.11.35a1.58,1.58,0,0,0-.63.57,1.49,1.49,0,0,0-.22.81,1.6,1.6,0,0,0,.23.83,1.53,1.53,0,0,0,.64.57l-.11.35a2,2,0,0,1-.62-.42Z" transform="translate(-0.09)"/><polygon class="cls-4" points="18.94 59.43 20.74 59.43 20.74 59.81 18.94 59.81 18.94 59.43"/><polygon class="cls-6" points="21.34 56.67 22.61 56.67 22.61 57.05 21.77 57.05 21.77 59.4 22.61 59.4 22.61 59.76 21.34 59.76 21.34 56.67"/><path class="cls-7" d="M23.21,59l.34-.26,0,0,0,0a.17.17,0,0,0,0,.07l0,.08a.45.45,0,0,0,.36.17.35.35,0,0,0,.29-.13.53.53,0,0,0,.11-.37.58.58,0,0,0-.11-.37.35.35,0,0,0-.29-.13.43.43,0,0,0-.22.06.66.66,0,0,0-.18.19l-.29-.13.09-1.34h1.37v.39h-1l0,.49a1,1,0,0,1,.28,0,.77.77,0,0,1,.58.23.94.94,0,0,1,.21.65,1,1,0,0,1-.1.47.82.82,0,0,1-.29.32.94.94,0,0,1-.45.11.83.83,0,0,1-.81-.47Z" transform="translate(-0.09)"/><polygon class="cls-6" points="26.7 59.76 25.43 59.76 25.43 59.4 26.27 59.4 26.27 57.05 25.43 57.05 25.43 56.67 26.7 56.67 26.7 59.76"/><polygon class="cls-5" points="27.83 58.24 27.15 58.24 27.15 57.89 27.83 57.89 27.83 57.24 28.22 57.24 28.22 57.89 28.88 57.89 28.88 58.24 28.22 58.24 28.22 58.96 27.83 58.96 27.83 58.24"/><polygon class="cls-4" points="29.14 59.43 30.94 59.43 30.94 59.81 29.14 59.81 29.14 59.43"/><polygon class="cls-6" points="31.54 56.67 32.81 56.67 32.81 57.05 31.97 57.05 31.97 59.4 32.81 59.4 32.81 59.76 31.54 59.76 31.54 56.67"/><path class="cls-7" d="M34.32,58.4v-.76l-.51.76Zm0,.37h-1v-.29l1.1-1.63h.33v1.54h.34v.38h-.34v.62H34.3v-.62Z" transform="translate(-0.09)"/><polygon class="cls-5" points="35.99 58.24 35.31 58.24 35.31 57.89 35.99 57.89 35.99 57.24 36.39 57.24 36.39 57.89 37.04 57.89 37.04 58.24 36.39 58.24 36.39 58.96 35.99 58.96 35.99 58.24"/><path class="cls-7" d="M38.52,57.25h-1v-.4h1.53v.23a20.29,20.29,0,0,0-.84,2.31h-.49c.3-.87.56-1.58.78-2.14Z" transform="translate(-0.09)"/><polygon class="cls-5" points="40.07 58.24 39.39 58.24 39.39 57.89 40.07 57.89 40.07 57.24 40.47 57.24 40.47 57.89 41.12 57.89 41.12 58.24 40.47 58.24 40.47 58.96 40.07 58.96 40.07 58.24"/><path class="cls-7" d="M42.66,58.93a.61.61,0,0,0,.1-.35.54.54,0,0,0-.1-.35.31.31,0,0,0-.24-.12.35.35,0,0,0-.21.07.42.42,0,0,0-.17.18,1,1,0,0,0,.11.51.32.32,0,0,0,.28.19.32.32,0,0,0,.23-.13Zm-.7.39a.92.92,0,0,1-.29-.44,1.85,1.85,0,0,1-.1-.65,2.2,2.2,0,0,1,.12-.76A1.12,1.12,0,0,1,42,57a.8.8,0,0,1,.5-.17.88.88,0,0,1,.64.3l-.29.3,0,0,0,0a.14.14,0,0,0,0-.06.33.33,0,0,0-.06-.08.38.38,0,0,0-.22-.07.41.41,0,0,0-.31.17,1.06,1.06,0,0,0-.18.53.78.78,0,0,1,.2-.14.47.47,0,0,1,.22,0,.74.74,0,0,1,.67.42.93.93,0,0,1,.1.45,1,1,0,0,1-.11.46.85.85,0,0,1-.29.33.72.72,0,0,1-.4.12.88.88,0,0,1-.46-.17Z" transform="translate(-0.09)"/><polygon class="cls-5" points="44.15 58.24 43.48 58.24 43.48 57.89 44.15 57.89 44.15 57.24 44.55 57.24 44.55 57.89 45.2 57.89 45.2 58.24 44.55 58.24 44.55 58.96 44.15 58.96 44.15 58.24"/><path class="cls-7" d="M57.84,59.13l.19-.38,0,0,0,0s0,0,0,.07a.42.42,0,0,0,0,.1.57.57,0,0,0,.21.13.85.85,0,0,0,.29,0,.37.37,0,0,0,.39-.41.42.42,0,0,0-.11-.31.59.59,0,0,0-.39-.1h-.21V57.9a.81.81,0,0,0,.5-.09.36.36,0,0,0,.14-.29.31.31,0,0,0-.33-.33.75.75,0,0,0-.26.05.84.84,0,0,0-.24.16l-.26-.26a.94.94,0,0,1,.34-.26,1,1,0,0,1,.41-.08.88.88,0,0,1,.41.09.73.73,0,0,1,.28.24.6.6,0,0,1,.1.35.58.58,0,0,1-.1.35.56.56,0,0,1-.25.21.65.65,0,0,1,.3.22.7.7,0,0,1,.12.42.77.77,0,0,1-.1.4.84.84,0,0,1-.3.29,1,1,0,0,1-.46.11,1,1,0,0,1-.79-.35Z" transform="translate(-0.09)"/><polygon class="cls-5" points="60.48 58.24 59.8 58.24 59.8 57.89 60.48 57.89 60.48 57.24 60.88 57.24 60.88 57.89 61.53 57.89 61.53 58.24 60.88 58.24 60.88 58.96 60.48 58.96 60.48 58.24"/><path class="cls-7" d="M62,59l.34-.26,0,0,0,0a.17.17,0,0,0,0,.07.59.59,0,0,0,0,.08.45.45,0,0,0,.36.17.35.35,0,0,0,.29-.13.53.53,0,0,0,.11-.37.58.58,0,0,0-.11-.37.35.35,0,0,0-.29-.13.43.43,0,0,0-.22.06.66.66,0,0,0-.18.19l-.29-.13.09-1.34h1.37v.39h-1l0,.49a1,1,0,0,1,.28,0,.77.77,0,0,1,.58.23.94.94,0,0,1,.21.65,1,1,0,0,1-.1.47.82.82,0,0,1-.29.32.94.94,0,0,1-.45.11A.84.84,0,0,1,62,59Z" transform="translate(-0.09)"/><polygon class="cls-5" points="64.56 58.24 63.89 58.24 63.89 57.89 64.56 57.89 64.56 57.24 64.96 57.24 64.96 57.89 65.61 57.89 65.61 58.24 64.96 58.24 64.96 58.96 64.56 58.96 64.56 58.24"/><path class="cls-7" d="M66.08,59.06c.33-.32.57-.55.71-.7a2.72,2.72,0,0,0,.33-.42.83.83,0,0,0,.11-.4.34.34,0,0,0-.1-.26.4.4,0,0,0-.27-.09.53.53,0,0,0-.41.16l0,.08a.15.15,0,0,0,0,.07l0,0,0,0-.3-.23a1,1,0,0,1,.36-.36,1,1,0,0,1,.48-.13.91.91,0,0,1,.41.09.7.7,0,0,1,.38.65.92.92,0,0,1-.1.42,2.28,2.28,0,0,1-.27.39l-.49.51-.16.15h.93l.06,0h0v.42H66.09v-.32Z" transform="translate(-0.09)"/><polygon class="cls-6" points="69.56 59.76 68.29 59.76 68.29 59.4 69.13 59.4 69.13 57.05 68.29 57.05 68.29 56.67 69.56 56.67 69.56 59.76"/><polygon class="cls-5" points="70.69 58.24 70.01 58.24 70.01 57.89 70.69 57.89 70.69 57.24 71.08 57.24 71.08 57.89 71.74 57.89 71.74 58.24 71.08 58.24 71.08 58.96 70.69 58.96 70.69 58.24"/><polygon class="cls-4" points="72 59.43 73.8 59.43 73.8 59.81 72 59.81 72 59.43"/><polygon class="cls-6" points="74.4 56.67 75.67 56.67 75.67 57.05 74.83 57.05 74.83 59.4 75.67 59.4 75.67 59.76 74.4 59.76 74.4 56.67"/><polygon class="cls-7" points="76.82 57.37 76.38 57.5 76.27 57.23 76.96 56.85 77.27 56.85 77.27 59.4 76.82 59.4 76.82 57.37"/><polygon class="cls-5" points="78.85 58.24 78.17 58.24 78.17 57.89 78.85 57.89 78.85 57.24 79.25 57.24 79.25 57.89 79.9 57.89 79.9 58.24 79.25 58.24 79.25 58.96 78.85 58.96 78.85 58.24"/><path class="cls-7" d="M80.37,59.06c.33-.32.57-.55.71-.7a2.72,2.72,0,0,0,.33-.42.83.83,0,0,0,.11-.4.34.34,0,0,0-.1-.26.4.4,0,0,0-.27-.09.53.53,0,0,0-.41.16l0,.08a.15.15,0,0,0,0,.07l0,0,0,0-.3-.23a1,1,0,0,1,.36-.36,1,1,0,0,1,.48-.13.91.91,0,0,1,.41.09.7.7,0,0,1,.38.65.92.92,0,0,1-.1.42,2.28,2.28,0,0,1-.27.39l-.49.51-.16.15h.93l.06,0h0v.42H80.38v-.32Z" transform="translate(-0.09)"/><path class="cls-7" d="M83.48,58.93a.61.61,0,0,0,.1-.35.54.54,0,0,0-.1-.35.31.31,0,0,0-.24-.12.33.33,0,0,0-.21.07.42.42,0,0,0-.17.18,1,1,0,0,0,.11.51.32.32,0,0,0,.28.19.32.32,0,0,0,.23-.13Zm-.7.39a.92.92,0,0,1-.29-.44,1.85,1.85,0,0,1-.1-.65,2.2,2.2,0,0,1,.12-.76,1.12,1.12,0,0,1,.33-.49.8.8,0,0,1,.5-.17.88.88,0,0,1,.64.3l-.29.3,0,0,0,0a.14.14,0,0,0,0-.06.33.33,0,0,0-.06-.08.38.38,0,0,0-.22-.07.41.41,0,0,0-.31.17,1.06,1.06,0,0,0-.18.53.78.78,0,0,1,.2-.14.47.47,0,0,1,.22,0,.74.74,0,0,1,.67.42.93.93,0,0,1,.1.45,1,1,0,0,1-.11.46.85.85,0,0,1-.29.33.72.72,0,0,1-.4.12.88.88,0,0,1-.46-.17Z" transform="translate(-0.09)"/><polygon class="cls-6" points="98.13 59.76 96.87 59.76 96.87 59.4 97.7 59.4 97.7 57.05 96.87 57.05 96.87 56.67 98.13 56.67 98.13 59.76"/><polygon class="cls-5" points="99.26 58.24 98.58 58.24 98.58 57.89 99.26 57.89 99.26 57.24 99.66 57.24 99.66 57.89 100.31 57.89 100.31 58.24 99.66 58.24 99.66 58.96 99.26 58.96 99.26 58.24"/><polygon class="cls-4" points="100.57 59.43 102.38 59.43 102.38 59.81 100.57 59.81 100.57 59.43"/><polygon class="cls-6" points="102.98 56.67 104.24 56.67 104.24 57.05 103.41 57.05 103.41 59.4 104.24 59.4 104.24 59.76 102.98 59.76 102.98 56.67"/><path class="cls-7" d="M105.88,57.25h-1v-.4h1.53v.23a20.29,20.29,0,0,0-.84,2.31h-.49c.29-.87.55-1.58.78-2.14Z" transform="translate(-0.09)"/><polygon class="cls-6" points="108.34 59.76 107.07 59.76 107.07 59.4 107.91 59.4 107.91 57.05 107.07 57.05 107.07 56.67 108.34 56.67 108.34 59.76"/><polygon class="cls-5" points="109.46 58.24 108.79 58.24 108.79 57.89 109.46 57.89 109.46 57.24 109.86 57.24 109.86 57.89 110.51 57.89 110.51 58.24 109.86 58.24 109.86 58.96 109.46 58.96 109.46 58.24"/><polygon class="cls-4" points="110.78 59.43 112.58 59.43 112.58 59.81 110.78 59.81 110.78 59.43"/><polygon class="cls-6" points="113.18 56.67 114.45 56.67 114.45 57.05 113.61 57.05 113.61 59.4 114.45 59.4 114.45 59.76 113.18 59.76 113.18 56.67"/><path class="cls-7" d="M115.06,59.06c.33-.32.57-.55.71-.7a2.72,2.72,0,0,0,.33-.42.83.83,0,0,0,.11-.4.34.34,0,0,0-.1-.26.4.4,0,0,0-.27-.09.53.53,0,0,0-.41.16l-.05.08a.15.15,0,0,0,0,.07l0,0,0,0-.3-.23a1,1,0,0,1,.36-.36,1,1,0,0,1,.48-.13.91.91,0,0,1,.41.09.7.7,0,0,1,.38.65.92.92,0,0,1-.1.42,2.28,2.28,0,0,1-.27.39l-.49.51-.16.15h.93l.06,0h0v.42h-1.58v-.32Z" transform="translate(-0.09)"/><path class="cls-7" d="M117.09,59l.34-.26,0,0,0,0a.17.17,0,0,0,0,.07.59.59,0,0,0,0,.08.45.45,0,0,0,.36.17.35.35,0,0,0,.29-.13.53.53,0,0,0,.11-.37.58.58,0,0,0-.11-.37.35.35,0,0,0-.29-.13.43.43,0,0,0-.22.06.66.66,0,0,0-.18.19l-.29-.13.09-1.34h1.37v.39h-1l0,.49a1,1,0,0,1,.28,0,.77.77,0,0,1,.58.23.94.94,0,0,1,.21.65,1,1,0,0,1-.1.47.82.82,0,0,1-.29.32.94.94,0,0,1-.45.11.83.83,0,0,1-.81-.47Z" transform="translate(-0.09)"/><polygon class="cls-6" points="120.58 59.76 119.32 59.76 119.32 59.4 120.15 59.4 120.15 57.05 119.32 57.05 119.32 56.67 120.58 56.67 120.58 59.76"/><polygon class="cls-5" points="121.71 58.24 121.03 58.24 121.03 57.89 121.71 57.89 121.71 57.24 122.11 57.24 122.11 57.89 122.76 57.89 122.76 58.24 122.11 58.24 122.11 58.96 121.71 58.96 121.71 58.24"/><polygon class="cls-4" points="20.98 63.06 22.78 63.06 22.78 63.44 20.98 63.44 20.98 63.06"/><polygon class="cls-6" points="23.38 60.29 24.65 60.29 24.65 60.67 23.81 60.67 23.81 63.03 24.65 63.03 24.65 63.39 23.38 63.39 23.38 60.29"/><path class="cls-7" d="M26.33,62.55a.61.61,0,0,0,.1-.35.54.54,0,0,0-.1-.35.31.31,0,0,0-.24-.12.35.35,0,0,0-.21.07.42.42,0,0,0-.17.18,1,1,0,0,0,.11.51.32.32,0,0,0,.28.19.27.27,0,0,0,.23-.13Zm-.7.39a.92.92,0,0,1-.29-.44,1.85,1.85,0,0,1-.1-.65,2.2,2.2,0,0,1,.12-.76,1.12,1.12,0,0,1,.33-.49.8.8,0,0,1,.5-.17.88.88,0,0,1,.64.3l-.29.3,0,0,0,0a.14.14,0,0,0,0-.06l-.06-.08a.38.38,0,0,0-.22-.07.41.41,0,0,0-.31.17,1.06,1.06,0,0,0-.18.53.78.78,0,0,1,.2-.14.47.47,0,0,1,.22-.05.74.74,0,0,1,.67.42.93.93,0,0,1,.1.45,1,1,0,0,1-.11.46.85.85,0,0,1-.29.33.72.72,0,0,1-.4.12.74.74,0,0,1-.46-.17Z" transform="translate(-0.09)"/><polygon class="cls-6" points="28.74 63.39 27.48 63.39 27.48 63.03 28.31 63.03 28.31 60.67 27.48 60.67 27.48 60.29 28.74 60.29 28.74 63.39"/><polygon class="cls-5" points="29.87 61.87 29.19 61.87 29.19 61.52 29.87 61.52 29.87 60.87 30.26 60.87 30.26 61.52 30.92 61.52 30.92 61.87 30.26 61.87 30.26 62.58 29.87 62.58 29.87 61.87"/><polygon class="cls-4" points="31.18 63.06 32.99 63.06 32.99 63.44 31.18 63.44 31.18 63.06"/><polygon class="cls-6" points="33.59 60.29 34.85 60.29 34.85 60.67 34.01 60.67 34.01 63.03 34.85 63.03 34.85 63.39 33.59 63.39 33.59 60.29"/><path class="cls-7" d="M36.48,60.88h-1v-.4H37v.23A20.29,20.29,0,0,0,36.19,63H35.7c.29-.87.56-1.59.78-2.14Z" transform="translate(-0.09)"/><polygon class="cls-6" points="38.95 63.39 37.68 63.39 37.68 63.03 38.52 63.03 38.52 60.67 37.68 60.67 37.68 60.29 38.95 60.29 38.95 63.39"/><polygon class="cls-5" points="40.07 61.87 39.39 61.87 39.39 61.52 40.07 61.52 40.07 60.87 40.47 60.87 40.47 61.52 41.12 61.52 41.12 61.87 40.47 61.87 40.47 62.58 40.07 62.58 40.07 61.87"/><polygon class="cls-6" points="41.75 60.29 43.01 60.29 43.01 60.67 42.18 60.67 42.18 63.03 43.01 63.03 43.01 63.39 41.75 63.39 41.75 60.29"/><polygon class="cls-6" points="61.4 63.39 60.13 63.39 60.13 63.03 60.97 63.03 60.97 60.67 60.13 60.67 60.13 60.29 61.4 60.29 61.4 63.39"/><polygon class="cls-5" points="62.52 61.87 61.84 61.87 61.84 61.52 62.52 61.52 62.52 60.87 62.92 60.87 62.92 61.52 63.57 61.52 63.57 61.87 62.92 61.87 62.92 62.58 62.52 62.58 62.52 61.87"/><polygon class="cls-4" points="63.84 63.06 65.64 63.06 65.64 63.44 63.84 63.44 63.84 63.06"/><polygon class="cls-6" points="66.24 60.29 67.51 60.29 67.51 60.67 66.67 60.67 66.67 63.03 67.51 63.03 67.51 63.39 66.24 63.39 66.24 60.29"/><path class="cls-7" d="M69.15,61.3a.44.44,0,0,0,.07-.21.25.25,0,0,0-.09-.19.32.32,0,0,0-.21-.08.28.28,0,0,0-.2.08.26.26,0,0,0-.08.19q0,.21.33.39a.62.62,0,0,0,.18-.18Zm0,1.29a.33.33,0,0,0,.1-.24.4.4,0,0,0-.11-.27.83.83,0,0,0-.3-.2.56.56,0,0,0-.23.2.43.43,0,0,0-.09.26.34.34,0,0,0,.11.25.36.36,0,0,0,.26.11.39.39,0,0,0,.26-.11Zm-.7.41a.81.81,0,0,1-.31-.27.7.7,0,0,1-.11-.37.67.67,0,0,1,.13-.39,1,1,0,0,1,.34-.3.88.88,0,0,1-.25-.26.63.63,0,0,1-.1-.31.59.59,0,0,1,.1-.34.68.68,0,0,1,.28-.25.85.85,0,0,1,.76,0,.78.78,0,0,1,.27.24.56.56,0,0,1,0,.65,1,1,0,0,1-.27.26,1,1,0,0,1,.33.3.68.68,0,0,1,0,.77.91.91,0,0,1-.31.27.88.88,0,0,1-.43.1.92.92,0,0,1-.44-.1Z" transform="translate(-0.09)"/><polygon class="cls-5" points="70.69 61.87 70.01 61.87 70.01 61.52 70.69 61.52 70.69 60.87 71.08 60.87 71.08 61.52 71.74 61.52 71.74 61.87 71.08 61.87 71.08 62.58 70.69 62.58 70.69 61.87"/><path class="cls-7" d="M72.12,62.76l.19-.38,0,0,0,0s0,0,0,.07a.42.42,0,0,0,0,.1.57.57,0,0,0,.21.13.85.85,0,0,0,.29,0,.37.37,0,0,0,.39-.41.42.42,0,0,0-.11-.31.59.59,0,0,0-.39-.1h-.21v-.37a.81.81,0,0,0,.5-.09.36.36,0,0,0,.14-.29.31.31,0,0,0-.33-.33.75.75,0,0,0-.26,0,.84.84,0,0,0-.24.16l-.26-.26a.94.94,0,0,1,.34-.26,1,1,0,0,1,.41-.08.88.88,0,0,1,.41.09.73.73,0,0,1,.28.24.6.6,0,0,1,.1.35.58.58,0,0,1-.1.35.56.56,0,0,1-.25.21.65.65,0,0,1,.3.22.7.7,0,0,1,.12.42.77.77,0,0,1-.1.4.84.84,0,0,1-.3.29,1,1,0,0,1-.46.11,1,1,0,0,1-.79-.35Z" transform="translate(-0.09)"/><polygon class="cls-5" points="74.77 61.87 74.09 61.87 74.09 61.52 74.77 61.52 74.77 60.87 75.16 60.87 75.16 61.52 75.82 61.52 75.82 61.87 75.16 61.87 75.16 62.58 74.77 62.58 74.77 61.87"/><path class="cls-7" d="M77.18,62v-.76l-.51.76Zm0,.37h-1v-.29l1.1-1.63h.33V62H78v.38h-.34V63h-.46V62.4Z" transform="translate(-0.09)"/><polygon class="cls-6" points="79.76 63.39 78.5 63.39 78.5 63.03 79.34 63.03 79.34 60.67 78.5 60.67 78.5 60.29 79.76 60.29 79.76 63.39"/><polygon class="cls-5" points="99.26 61.87 98.58 61.87 98.58 61.52 99.26 61.52 99.26 60.87 99.66 60.87 99.66 61.52 100.31 61.52 100.31 61.87 99.66 61.87 99.66 62.58 99.26 62.58 99.26 61.87"/><polygon class="cls-4" points="100.57 63.06 102.38 63.06 102.38 63.44 100.57 63.44 100.57 63.06"/><polygon class="cls-6" points="102.98 60.29 104.24 60.29 104.24 60.67 103.41 60.67 103.41 63.03 104.24 63.03 104.24 63.39 102.98 63.39 102.98 60.29"/><polygon class="cls-7" points="105.39 61 104.95 61.13 104.84 60.85 105.53 60.48 105.84 60.48 105.84 63.03 105.39 63.03 105.39 61"/><polygon class="cls-6" points="108.34 63.39 107.07 63.39 107.07 63.03 107.91 63.03 107.91 60.67 107.07 60.67 107.07 60.29 108.34 60.29 108.34 63.39"/><polygon class="cls-5" points="109.46 61.87 108.79 61.87 108.79 61.52 109.46 61.52 109.46 60.87 109.86 60.87 109.86 61.52 110.51 61.52 110.51 61.87 109.86 61.87 109.86 62.58 109.46 62.58 109.46 61.87"/><polygon class="cls-4" points="110.78 63.06 112.58 63.06 112.58 63.44 110.78 63.44 110.78 63.06"/><polygon class="cls-6" points="113.18 60.29 114.45 60.29 114.45 60.67 113.61 60.67 113.61 63.03 114.45 63.03 114.45 63.39 113.18 63.39 113.18 60.29"/><path class="cls-7" d="M115.06,62.69c.33-.32.57-.55.71-.7a2.72,2.72,0,0,0,.33-.42.83.83,0,0,0,.11-.4.34.34,0,0,0-.1-.26.4.4,0,0,0-.27-.09.53.53,0,0,0-.41.16l-.05.08a.15.15,0,0,0,0,.07l0,0,0,0-.3-.23a1,1,0,0,1,.36-.36,1,1,0,0,1,.48-.13.91.91,0,0,1,.41.09.7.7,0,0,1,.38.65.92.92,0,0,1-.1.42,2.28,2.28,0,0,1-.27.39l-.49.51-.16.15h.93l.06,0h0V63h-1.58v-.32Z" transform="translate(-0.09)"/><polygon class="cls-6" points="118.54 63.39 117.28 63.39 117.28 63.03 118.11 63.03 118.11 60.67 117.28 60.67 117.28 60.29 118.54 60.29 118.54 63.39"/><path class="cls-5" d="M119.45,63.48l-.11-.35a1.48,1.48,0,0,0,.64-.57,1.51,1.51,0,0,0,.23-.83,1.45,1.45,0,0,0-.22-.81,1.58,1.58,0,0,0-.63-.57l.11-.35a1.89,1.89,0,0,1,.62.42,2,2,0,0,1,.41.6,1.9,1.9,0,0,1,.14.7,1.86,1.86,0,0,1-.15.72,2,2,0,0,1-.42.62,1.79,1.79,0,0,1-.62.42Z" transform="translate(-0.09)"/></svg>