<?xml version="1.0" encoding="UTF-8" standalone="no"?>
<!-- Created with Inkscape (http://www.inkscape.org/) -->

<svg
   width="475.94168mm"
   height="150.4966mm"
   viewBox="0 0 475.94168 150.4966"
   version="1.1"
   id="svg1"
   xml:space="preserve"
   xmlns="http://www.w3.org/2000/svg"
   xmlns:svg="http://www.w3.org/2000/svg"><defs
     id="defs1" /><g
     id="layer1"
     transform="translate(-70.379166,-457.89934)"><g
       id="g21"><path
         d="m 199.12969,551.74059 q -1.40163,0 -2.74486,-0.40881 -1.34323,-0.35041 -2.45285,-1.16803 -1.10963,-0.81762 -1.92725,-1.98564 -0.75921,-1.16803 -1.22642,-2.51126 v 5.60653 H 186.223 v -42.92496 h 4.55531 v 18.16281 q 0.46721,-1.34323 1.22642,-2.51126 0.81762,-1.16803 1.92725,-1.98564 1.10962,-0.81762 2.45285,-1.16803 1.34323,-0.40881 2.74486,-0.40881 1.46003,0 2.86166,0.40881 1.40164,0.40881 2.51126,1.34323 1.16803,0.87602 1.92724,2.10245 0.75922,1.22642 1.22643,2.62805 0.46721,1.34323 0.58401,2.80327 0.17521,1.40163 0.17521,2.86166 v 7.00816 q 0,1.46003 -0.17521,2.92006 -0.1168,1.40163 -0.58401,2.80326 -0.46721,1.34323 -1.22643,2.56966 -0.75921,1.22643 -1.92724,2.16085 -1.10962,0.87602 -2.51126,1.28483 -1.40163,0.40881 -2.86166,0.40881 z m -1.81044,-4.08809 q 0.99282,0 1.92724,-0.23361 0.99283,-0.2336 1.75204,-0.81762 0.81762,-0.58401 1.40163,-1.40163 0.58402,-0.81762 0.87602,-1.75204 0.35041,-0.93442 0.46721,-1.86884 0.11681,-0.99282 0.11681,-1.98564 v -7.00816 q 0,-0.99282 -0.11681,-1.92724 -0.1168,-0.99282 -0.46721,-1.92724 -0.292,-0.93443 -0.87602,-1.75204 -0.58401,-0.81762 -1.40163,-1.40163 -0.75921,-0.58402 -1.75204,-0.81762 -0.93442,-0.23361 -1.92724,-0.23361 -0.99282,0 -1.98564,0.23361 -0.93442,0.2336 -1.75204,0.81762 -0.75922,0.58401 -1.34323,1.40163 -0.58402,0.81761 -0.93442,1.75204 -0.29201,0.93442 -0.40881,1.92724 -0.1168,0.93442 -0.1168,1.92724 v 7.00816 q 0,0.99282 0.1168,1.98564 0.1168,0.93442 0.40881,1.86884 0.3504,0.93442 0.93442,1.75204 0.58401,0.81762 1.34323,1.40163 0.81762,0.58402 1.75204,0.81762 0.99282,0.23361 1.98564,0.23361 z m 18.74682,3.62088 v -4.08809 h 8.35138 v -22.1925 h -7.53376 v -4.08809 h 12.08906 v 26.28059 h 7.53377 v 4.08809 z m 10.51223,-35.50799 q -0.75922,0 -1.46003,-0.17521 -0.70082,-0.2336 -1.22643,-0.75921 -0.52561,-0.52562 -0.75922,-1.22643 -0.1752,-0.70082 -0.1752,-1.46003 0,-0.75922 0.1752,-1.46004 0.23361,-0.70081 0.75922,-1.22642 0.52561,-0.52561 1.22643,-0.75922 0.70081,-0.23361 1.46003,-0.23361 0.75922,0 1.46003,0.23361 0.70082,0.23361 1.22643,0.75922 0.52561,0.52561 0.75922,1.22642 0.2336,0.70082 0.2336,1.46004 0,0.75921 -0.2336,1.46003 -0.23361,0.70081 -0.75922,1.22643 -0.52561,0.52561 -1.22643,0.75921 -0.70081,0.17521 -1.46003,0.17521 z m 21.55008,35.50799 V 520.9047 h 4.5553 v 6.54095 q 0.35041,-1.28483 0.93442,-2.56966 0.64242,-1.28483 1.57684,-2.27765 0.93442,-1.05122 2.21925,-1.57684 1.34323,-0.58401 2.74486,-0.58401 1.05122,0 2.10244,0.29201 1.10963,0.2336 1.98565,0.87602 0.87602,0.64241 1.46003,1.57683 0.64242,0.87602 0.93442,1.92724 0.35041,0.99283 0.46721,2.10245 0.11681,1.05122 0.11681,2.16085 h -4.55531 q 0,-0.87602 -0.1752,-1.69364 -0.1168,-0.87602 -0.58401,-1.63523 -0.40881,-0.75922 -1.22643,-1.10963 -0.75922,-0.40881 -1.63524,-0.40881 -1.16802,0 -2.27765,0.52561 -1.05122,0.46721 -1.81044,1.34323 -0.70081,0.87602 -1.16802,1.98565 -0.46721,1.05122 -0.70082,2.21925 -0.2336,1.10962 -0.35041,2.27765 -0.0584,1.16802 -0.0584,2.27765 v 16.11876 z m 24.93735,0 V 520.9047 h 4.20489 v 2.68646 q 0.29201,-0.64241 0.70082,-1.22643 0.40881,-0.64241 0.93442,-1.05122 0.58401,-0.46721 1.28483,-0.64241 0.70082,-0.23361 1.46003,-0.23361 0.87602,0 1.69364,0.35041 0.81762,0.29201 1.40163,0.93442 0.64242,0.58401 1.05122,1.40163 0.40881,0.81762 0.64242,1.63524 0.1752,-0.81762 0.52561,-1.63524 0.40881,-0.81762 0.99282,-1.40163 0.64242,-0.64241 1.46003,-0.93442 0.87602,-0.35041 1.75204,-0.35041 0.87602,0 1.69364,0.35041 0.81762,0.29201 1.46003,0.93442 0.64242,0.58401 0.99283,1.40163 0.40881,0.81762 0.64241,1.69364 0.23361,0.81762 0.29201,1.69364 0.0584,0.87602 0.0584,1.75203 v 23.01012 h -4.2049 v -23.01012 q 0,-0.64241 -0.1168,-1.34323 -0.1168,-0.70081 -0.40881,-1.28482 -0.292,-0.58402 -0.87602,-0.99283 -0.58401,-0.4088 -1.22642,-0.4088 -0.70082,0 -1.28483,0.4088 -0.58402,0.40881 -0.87602,0.99283 -0.29201,0.58401 -0.40881,1.28482 -0.1168,0.70082 -0.1168,1.34323 v 23.01012 h -4.2049 v -23.01012 q 0,-0.64241 -0.1168,-1.34323 -0.1168,-0.70081 -0.40881,-1.28482 -0.29201,-0.58402 -0.87602,-0.99283 -0.58401,-0.4088 -1.28483,-0.4088 -0.64241,0 -1.22642,0.4088 -0.58402,0.40881 -0.87602,0.99283 -0.29201,0.58401 -0.40881,1.28482 -0.11681,0.70082 -0.11681,1.34323 v 23.01012 z m 30.60229,0 v -4.08809 h 8.35138 v -22.1925 h -7.53377 v -4.08809 h 12.08907 v 26.28059 h 7.53377 v 4.08809 z m 10.51223,-35.50799 q -0.75922,0 -1.46003,-0.17521 -0.70082,-0.2336 -1.22643,-0.75921 -0.52561,-0.52562 -0.75922,-1.22643 -0.1752,-0.70082 -0.1752,-1.46003 0,-0.75922 0.1752,-1.46004 0.23361,-0.70081 0.75922,-1.22642 0.52561,-0.52561 1.22643,-0.75922 0.70081,-0.23361 1.46003,-0.23361 0.75922,0 1.46003,0.23361 0.70082,0.23361 1.22643,0.75922 0.52561,0.52561 0.75922,1.22642 0.2336,0.70082 0.2336,1.46004 0,0.75921 -0.2336,1.46003 -0.23361,0.70081 -0.75922,1.22643 -0.52561,0.52561 -1.22643,0.75921 -0.70081,0.17521 -1.46003,0.17521 z m 18.046,35.50799 V 520.9047 h 4.55531 v 5.54812 q 0.46721,-1.28482 1.16802,-2.45285 0.75922,-1.16803 1.81044,-1.98564 1.10963,-0.81762 2.45286,-1.16803 1.34323,-0.40881 2.68646,-0.40881 1.46003,0 2.80326,0.40881 1.40163,0.40881 2.51125,1.34323 1.10963,0.93442 1.81044,2.16085 0.75922,1.22643 1.16803,2.62806 0.46721,1.34323 0.58401,2.80326 0.17521,1.40163 0.17521,2.80326 v 18.68842 h -4.5553 v -18.68842 q 0,-0.99282 -0.11681,-1.92724 -0.1168,-0.99282 -0.40881,-1.86884 -0.292,-0.93442 -0.87602,-1.75204 -0.52561,-0.81762 -1.28482,-1.40163 -0.75922,-0.58402 -1.69364,-0.81762 -0.93442,-0.29201 -1.92724,-0.29201 -0.99283,0 -1.92725,0.29201 -0.93442,0.2336 -1.69363,0.81762 -0.75922,0.58401 -1.34323,1.40163 -0.52562,0.81762 -0.81762,1.75204 -0.29201,0.87602 -0.40881,1.86884 -0.1168,0.93442 -0.1168,1.92724 v 18.68842 z m 40.12168,13.02349 q -1.46003,0 -2.92006,-0.17521 -1.46003,-0.1752 -2.86166,-0.70081 -1.34323,-0.52562 -2.56966,-1.40163 -1.22643,-0.81762 -2.04405,-2.04405 -0.81761,-1.22643 -1.22642,-2.68646 -0.35041,-1.40163 -0.35041,-2.86166 0,-0.99283 0.1752,-2.04405 0.17521,-0.99282 0.58402,-1.86884 0.46721,-0.93442 1.10962,-1.69364 0.64241,-0.75921 1.46003,-1.34323 -0.75921,-0.87602 -1.22642,-1.92724 -0.40881,-1.10963 -0.40881,-2.27765 0,-1.46003 0.64241,-2.80326 0.64241,-1.40163 1.75204,-2.33606 -0.87602,-0.70081 -1.57684,-1.57683 -0.70081,-0.87602 -1.16802,-1.86884 -0.40881,-1.05123 -0.58401,-2.16085 -0.17521,-1.10963 -0.17521,-2.21925 0,-1.40163 0.29201,-2.74486 0.292,-1.40163 0.93442,-2.56966 0.70081,-1.22643 1.75204,-2.10244 1.10962,-0.93443 2.39445,-1.46004 1.28483,-0.58401 2.62806,-0.75921 1.40163,-0.23361 2.74486,-0.23361 1.05122,0 2.04405,0.1168 0.99282,0.11681 1.98564,0.35041 h 8.8186 v 4.08809 l -3.38728,-0.1168 q 0.75922,1.22643 1.05122,2.62806 0.29201,1.40163 0.29201,2.80326 0,1.34323 -0.29201,2.74486 -0.292,1.34323 -0.99282,2.56966 -0.70081,1.16802 -1.75204,2.10245 -1.05122,0.93442 -2.33605,1.51843 -1.28483,0.52561 -2.68646,0.75922 -1.34323,0.1752 -2.74486,0.1752 -0.99282,0 -1.98564,-0.1168 -0.99283,-0.11681 -1.92725,-0.35041 -0.70081,0.40881 -1.16802,1.16803 -0.46721,0.70081 -0.46721,1.57683 0,0.70082 0.292,1.34323 0.35041,0.58401 0.93442,0.99282 0.58402,0.40881 1.22643,0.58402 0.70082,0.1752 1.40163,0.2336 h 3.67928 q 1.34323,0 2.62806,0.1752 1.34323,0.11681 2.51126,0.64242 1.22643,0.46721 2.27765,1.22643 1.10962,0.75921 1.81044,1.86884 0.75922,1.10962 1.05122,2.39445 0.29201,1.28483 0.29201,2.62806 0,1.46003 -0.40881,2.86166 -0.35041,1.46004 -1.22643,2.62806 -0.81761,1.16803 -2.04404,2.04405 -1.16803,0.87602 -2.56966,1.34323 -1.34323,0.52561 -2.80326,0.70081 -1.40163,0.17521 -2.86167,0.17521 z m -0.64241,-28.20783 q 1.22643,0 2.39445,-0.29201 1.22643,-0.35041 2.10245,-1.16802 0.93442,-0.81762 1.34323,-1.98565 0.40881,-1.16802 0.40881,-2.33605 0,-1.10962 -0.35041,-2.16085 -0.292,-1.10962 -1.05122,-1.86884 -0.75922,-0.81762 -1.81044,-1.22643 -1.05123,-0.40881 -2.16085,-0.46721 l -0.87602,-0.0584 q -1.16803,0 -2.39445,0.35041 -1.16803,0.29201 -2.10245,1.10962 -0.87602,0.75922 -1.28483,1.92725 -0.40881,1.16802 -0.40881,2.39445 0,1.16803 0.40881,2.33605 0.40881,1.16803 1.28483,1.98565 0.93442,0.81761 2.10245,1.16802 1.22642,0.29201 2.39445,0.29201 z m 0.64241,24.11974 q 1.28483,0 2.56966,-0.29201 1.34323,-0.23361 2.45286,-0.93442 1.10962,-0.70082 1.75204,-1.92724 0.64241,-1.16803 0.64241,-2.51126 0,-1.10963 -0.46721,-2.16085 -0.46721,-0.99282 -1.40163,-1.57683 -0.93442,-0.64242 -2.04405,-0.87602 -1.05122,-0.23361 -2.16085,-0.23361 h -3.44567 q -0.99282,0.0584 -1.98565,0.35041 -0.99282,0.29201 -1.81044,0.93442 -0.75921,0.58401 -1.16802,1.51843 -0.35041,0.93442 -0.35041,1.92725 0,1.34323 0.58401,2.56965 0.64242,1.22643 1.75204,1.92725 1.10963,0.75921 2.39446,0.99282 1.34323,0.29201 2.68645,0.29201 z"
         id="path20"
         style="font-size:58.4013px;font-family:'Iosevka Term SS08';-inkscape-font-specification:'Iosevka Term SS08';fill:#50c878;stroke-width:2.29927;stroke-linejoin:round" /><path
         style="font-weight:800;font-size:58.4013px;font-family:'Iosevka Term SS08';-inkscape-font-specification:'Iosevka Term SS08 Ultra-Bold';fill:#50c878;stroke-width:2.29927;stroke-linejoin:round"
         d="m 390.27714,551.27338 v -42.92496 h 7.24176 v 17.8708 h 7.94257 v -17.8708 h 7.24177 v 42.92496 h -7.24177 v -18.92202 h -7.94257 v 18.92202 z m 37.02642,0.46721 q -1.75203,0 -3.44567,-0.58402 -1.63524,-0.58401 -2.80326,-1.86884 -1.10963,-1.34323 -1.57684,-3.03687 -0.46721,-1.69363 -0.46721,-3.44567 0,-1.51844 0.35041,-3.03687 0.40881,-1.57683 1.28483,-2.80326 0.93442,-1.28483 2.21925,-2.16085 1.34323,-0.87602 2.80326,-1.34323 1.51843,-0.52561 3.03687,-0.70082 1.57683,-0.1752 3.09526,-0.1752 h 2.86167 v -1.69364 q 0,-0.81761 -0.23361,-1.63523 -0.2336,-0.87602 -0.81762,-1.46004 -0.52561,-0.64241 -1.34323,-0.93442 -0.81761,-0.292 -1.63523,-0.292 -0.75922,0 -1.51844,0.1752 -0.70081,0.1752 -1.28482,0.64242 -0.58402,0.46721 -0.93442,1.16802 -0.29201,0.64242 -0.29201,1.40163 v 0.11681 h -7.24176 v -0.29201 q 0,-1.40163 0.35041,-2.74486 0.4088,-1.34323 1.16802,-2.45286 0.81762,-1.10962 1.92724,-1.92724 1.16803,-0.87602 2.39446,-1.34323 1.28483,-0.52561 2.62806,-0.70082 1.40163,-0.1752 2.80326,-0.1752 1.46003,0 2.92006,0.23361 1.46004,0.2336 2.74486,0.81761 1.34323,0.58402 2.45286,1.57684 1.10962,0.93442 1.81044,2.21925 0.75922,1.28483 1.05122,2.74486 0.29201,1.40163 0.29201,2.86166 v 20.38206 h -7.24176 v -4.67211 q -0.40881,1.10963 -1.16803,2.10245 -0.70081,0.99282 -1.69364,1.69364 -0.93442,0.70081 -2.16084,0.99282 -1.16803,0.35041 -2.33606,0.35041 z m 3.15367,-6.13214 q 0.87602,0 1.75204,-0.35041 0.87602,-0.35041 1.46004,-1.05122 0.58401,-0.70082 0.75921,-1.57684 0.23361,-0.93442 0.23361,-1.86884 v -2.04404 h -2.86167 q -0.58401,0 -1.22642,0.0584 -0.58402,0 -1.22643,0.1752 -0.58401,0.11681 -1.16803,0.35041 -0.52561,0.23361 -0.99282,0.64241 -0.46721,0.40881 -0.70081,0.99283 -0.23361,0.58401 -0.23361,1.16802 0,0.81762 0.29201,1.51844 0.35041,0.70081 0.93442,1.16802 0.64241,0.46721 1.40163,0.64242 0.75922,0.1752 1.57683,0.1752 z m 29.25906,6.13214 q -1.57684,0 -3.15367,-0.29201 -1.57684,-0.29201 -2.97847,-1.05122 -1.40163,-0.81762 -2.51125,-1.98565 -1.05123,-1.16802 -1.69364,-2.62806 -0.64242,-1.46003 -0.93442,-3.03686 -0.23361,-1.57684 -0.23361,-3.15367 v -7.00816 q 0,-1.57683 0.23361,-3.15367 0.292,-1.57683 0.93442,-3.03687 0.64241,-1.46003 1.69364,-2.62806 1.10962,-1.16802 2.51125,-1.92724 1.40163,-0.81762 2.97847,-1.10962 1.57683,-0.29201 3.15367,-0.29201 1.51843,0 2.97847,0.29201 1.51843,0.2336 2.86166,0.93442 1.40163,0.64241 2.45285,1.75204 1.10963,1.05122 1.81044,2.39445 0.75922,1.34323 1.05123,2.86166 0.3504,1.46004 0.3504,2.97847 v 0.46721 h -7.24176 v -0.2336 q 0,-0.93443 -0.2336,-1.86885 -0.23361,-0.99282 -0.75922,-1.75204 -0.52561,-0.81761 -1.46003,-1.22642 -0.87602,-0.46721 -1.81044,-0.46721 -1.05122,0 -1.98565,0.58401 -0.93442,0.52561 -1.46003,1.46003 -0.46721,0.87602 -0.64241,1.92725 -0.17521,0.99282 -0.17521,2.04404 v 7.00816 q 0,1.05122 0.17521,2.10244 0.1752,0.99283 0.64241,1.92725 0.52561,0.87602 1.46003,1.46003 0.93443,0.52561 1.98565,0.52561 0.93442,0 1.81044,-0.40881 0.93442,-0.46721 1.46003,-1.22643 0.52561,-0.81761 0.75922,-1.75203 0.2336,-0.99283 0.2336,-1.92725 v -0.2336 h 7.24176 v 0.46721 q 0,1.51843 -0.3504,3.03687 -0.29201,1.46003 -1.05123,2.80326 -0.70081,1.34323 -1.81044,2.45285 -1.05122,1.05123 -2.45285,1.75204 -1.34323,0.64242 -2.86166,0.87602 -1.46004,0.29201 -2.97847,0.29201 z m 18.16281,-0.46721 v -42.92496 h 7.24176 v 24.52855 q 0.87602,-0.87602 1.69364,-1.75204 0.87601,-0.87602 1.69363,-1.75204 0.81762,-0.93442 1.57684,-1.86884 0.81762,-0.99282 1.40163,-1.98565 0.64241,-1.05122 1.10962,-2.21925 0.46721,-1.16802 0.46721,-2.39445 h 7.24177 q 0,1.28483 -0.46722,2.51126 -0.4088,1.22642 -1.05122,2.33605 -0.64241,1.05122 -1.46003,2.10245 -0.75922,0.99282 -1.57684,1.98564 -0.81761,0.93442 -1.75204,1.86884 -0.87601,0.87602 -1.81044,1.81044 0.99283,1.34323 1.92725,2.74486 0.93442,1.34323 1.81044,2.80327 0.87602,1.40163 1.63523,2.86166 0.81762,1.46003 1.51844,2.97846 0.70081,1.51844 1.16802,3.09527 0.52562,1.57684 0.52562,3.27048 h -7.24177 q 0,-1.28483 -0.3504,-2.51126 -0.29201,-1.22643 -0.75922,-2.39445 -0.40881,-1.16803 -0.93442,-2.27765 -0.52561,-1.16803 -1.10963,-2.27765 -0.58401,-1.10963 -1.22642,-2.21925 -0.58402,-1.10963 -1.22643,-2.16085 -0.70082,0.64241 -1.40163,1.28483 -0.70082,0.58401 -1.40163,1.16802 v 11.38826 z"
         id="path21" /><path
         style="fill:none;fill-opacity:1;stroke:#50c878;stroke-width:5;stroke-linecap:butt;stroke-linejoin:miter;stroke-dasharray:none;stroke-opacity:1"
         d="m 509.83197,500.88517 32.9173,32.26197 -32.9173,32.263"
         id="path19-8-1-2" /><path
         style="fill:none;fill-opacity:1;stroke:#50c878;stroke-width:5;stroke-linecap:butt;stroke-linejoin:miter;stroke-dasharray:none;stroke-opacity:1"
         d="m 106.86806,500.88516 -32.9173,32.26199 32.9173,32.263"
         id="path19-8-1-4-2" /></g><g
       id="g25-9-9"
       transform="translate(3.9710394,428.80788)"><path
         style="fill:#406b40;fill-opacity:0.505882;stroke:none;stroke-width:0.618091;stroke-dasharray:none"
         d="m 143.31502,96.00852 c -0.99743,0.706831 -0.32808,2.162188 -0.52197,3.200145 0.0516,14.266105 -0.0765,28.534235 0.12239,42.799025 -0.16992,0.786 0.56796,1.78325 1.38016,1.19587 0.59651,-0.94187 0.53889,-2.1949 1.12623,-3.17779 1.06111,-2.37117 3.39799,-4.54064 6.14636,-4.12004 2.79088,0.14384 4.68488,2.75446 5.52927,5.19261 0.44557,0.85669 0.15952,2.00872 0.77054,2.7398 0.72382,0.69862 1.58722,-0.34096 1.3429,-1.11817 0.0154,-3.02981 -0.30091,-6.07777 -0.19933,-9.09185 1.2294,-5.30095 2.53099,-10.58983 3.71545,-15.89828 -0.0658,-2.05933 -0.13158,-4.11866 -0.1974,-6.17799 0.54069,-0.7723 1.89058,-1.34303 1.64208,-2.45145 -0.62121,-0.50542 -0.77288,-0.97027 -0.58826,-1.83755 -0.05,-1.34629 0.32522,-2.7503 -0.0276,-4.05552 -2.12425,-1.07066 -4.49336,-1.68269 -6.7187,-2.5608 -4.38256,-1.534927 -8.74617,-3.200066 -13.14622,-4.638233 -0.12531,7.4e-5 -0.25063,1.48e-4 -0.37594,2.23e-4 z"
         id="path22-0-6" /><path
         style="fill:#406b40;fill-opacity:0.505882;stroke:none;stroke-width:0.618091;stroke-dasharray:none"
         d="m 143.02531,144.20011 c -0.63546,1.02698 -0.16658,2.35594 -0.32696,3.50676 -0.0159,8.84385 -0.14672,17.69392 0.0603,26.53416 0.48149,1.24331 1.84262,0.20897 2.64854,-0.0793 4.74569,-2.11961 9.55535,-4.15919 14.23697,-6.3829 0.74056,-0.79715 0.13144,-2.08897 0.27594,-3.08817 -0.23897,-6.28333 -0.29359,-12.58235 -0.70781,-18.85423 -0.36418,-1.01864 -1.75848,-0.47574 -1.6919,0.47113 -0.30936,2.22354 -1.31595,4.49463 -3.06727,5.95312 -1.12474,0.82613 -2.46396,1.35545 -3.87857,1.16616 -2.53548,-0.13476 -4.51439,-2.31738 -5.33118,-4.59208 -0.57248,-1.36703 -0.70597,-2.87413 -1.00504,-4.29375 -0.16126,-0.52011 -0.79324,-0.64238 -1.21298,-0.3409 z"
         id="path23-8-2" /><path
         style="fill:#406b40;fill-opacity:0.504292;stroke:none;stroke-width:0.999675;stroke-linecap:butt;stroke-linejoin:round;stroke-dasharray:none;stroke-opacity:1"
         d="m 143.32994,64.452187 c -0.69359,0.817735 -0.21884,2.020012 -0.37531,3.005815 -0.0522,8.304366 -0.0695,16.608896 -0.10099,24.913354 0.25261,1.095536 1.68801,0.998546 2.51728,1.464487 3.2153,1.107885 6.38933,2.388196 9.64248,3.357362 1.06447,0.02024 0.95936,-1.305904 0.97624,-2.040237 0.0621,-5.71337 -0.0158,-11.427341 -0.0207,-17.140912 0.81435,-1.912604 2.0583,-3.835005 1.75338,-6.011402 -0.18467,-0.940625 0.16515,-2.155425 -0.57488,-2.862424 -3.39086,-1.479372 -6.94511,-2.577406 -10.41575,-3.862588 -1.01505,-0.268769 -2.00309,-0.875305 -3.04481,-0.923597 -0.11899,0.03338 -0.23798,0.06676 -0.35698,0.100142 z"
         id="path17-8-1" /><path
         style="fill:#406b40;fill-opacity:0.504292;stroke:none;stroke-width:0.999675;stroke-linecap:butt;stroke-linejoin:round;stroke-dasharray:none;stroke-opacity:1"
         d="m 143.50222,43.095337 c -0.83248,0.586693 -0.39631,1.784675 -0.54216,2.647296 -0.0316,5.008387 -0.0812,10.03511 0.005,15.032335 0.30945,0.942478 1.59008,0.863672 2.3542,1.288431 2.50238,0.856523 4.97211,1.842283 7.50144,2.6021 0.916,0.08991 1.15638,-1.11107 0.66992,-1.714883 -2.97956,-6.54155 -5.92307,-13.105114 -8.99975,-19.599011 -0.27319,-0.307634 -0.6014,-0.379706 -0.98884,-0.256268 z"
         id="path18-5-7" /><path
         style="fill:#5aff76;fill-opacity:0.0965582;stroke:none;stroke-width:0.999675;stroke-linecap:butt;stroke-linejoin:round;stroke-dasharray:none;stroke-opacity:1"
         d="m 133.36015,135.87096 c -2.16077,0.0635 -4.18624,1.31227 -5.22692,3.20419 -1.7584,3.03031 -2.2848,6.69741 -1.85509,10.14439 0.23349,2.11181 1.81859,4.18727 4.02532,4.40372 1.57454,0.1546 3.22117,-0.0627 4.51814,-1.03474 2.33534,-1.64648 3.50915,-4.50687 3.92639,-7.24965 0.25221,-2.38072 0.35546,-5.08948 -1.29304,-7.03603 -0.98291,-1.26862 -2.42738,-2.39835 -4.0948,-2.43188 z m -0.74777,3.16338 c 0.21453,0.38212 0.54064,0.72583 0.20793,1.12747 -0.15096,1.32133 -0.0924,2.68248 -0.0418,4.00094 0.2552,1.03421 1.71712,0.64504 2.26625,0.0517 0.55677,0.0864 1.3732,0.17479 0.55808,0.69308 -0.2849,0.5371 -0.90055,0.10861 -1.37275,0.36181 -0.70614,0.17337 -1.40305,0.38191 -2.10771,0.56102 -0.0446,-1.98855 0.19998,-4.00531 0.0499,-5.97404 -0.27548,-0.16123 0.34508,-1.29883 0.44004,-0.82203 z"
         id="path13-0-8" /><path
         style="fill:#00ff00;stroke:#50c878;stroke-width:4;stroke-dasharray:none;stroke-opacity:1"
         d="M 141.33304,177.42389 141.72978,33.803327"
         id="path1-9-5" /><path
         style="fill:none;stroke:#50c878;stroke-width:4;stroke-linecap:butt;stroke-dasharray:none;stroke-opacity:1"
         d="m 122.48762,169.35673 1.12411,-35.90515 -3.76908,-16.06717 0.16531,-5.91812 -1.45474,-1.45473 -2.08291,-3.20703 2.51272,-0.0331 -0.19837,-5.05851 7.73654,-2.843341 0.13225,-21.027522 -1.85148,-4.099706 0.13224,-3.438461 -1.85148,-1.586984 3.70296,-1.586982 14.86306,-33.186703 15.42415,33.747113 3.70296,1.586982 -1.85148,1.586984 0.13224,3.438461 -1.85148,4.099706 0.13225,21.027522 7.73654,2.843341 -0.19837,5.05851 2.51272,0.0331 -2.08291,3.20703 -1.45474,1.45473 0.16531,5.91812 -3.76908,16.06717 1.12411,35.90515"
         id="path2-6-7" /><path
         style="fill:none;stroke:#50c878;stroke-width:4;stroke-dasharray:none;stroke-opacity:1"
         d="m 126.83096,98.790721 14.68168,-5.236777"
         id="path3-3-4" /><path
         style="fill:none;stroke:#50c878;stroke-width:4;stroke-dasharray:none;stroke-opacity:1"
         d="m 127.03747,66.952294 14.68168,-5.236777"
         id="path3-6-8-1" /><path
         style="fill:#5aff76;fill-opacity:0.0965582;stroke:none;stroke-width:1.41375;stroke-linecap:butt;stroke-linejoin:round;stroke-dasharray:none;stroke-opacity:1"
         d="m 150.16618,135.62002 c -2.19572,0.12098 -4.00282,1.94073 -4.88026,3.84247 -0.97488,3.33966 -0.52979,7.11657 1.15176,10.16378 1.28822,2.45467 4.06082,4.12078 6.86011,3.61125 2.76211,-0.30909 4.20694,-3.25672 4.06748,-5.78793 0.0841,-3.83978 -0.63757,-8.22402 -3.82931,-10.74467 -0.96468,-0.72084 -2.16429,-1.11477 -3.36978,-1.0849 z m 1.14919,2.88943 c 0.41839,0.55225 0.49882,1.08563 0.23927,1.71503 -0.11148,1.40316 -0.33986,2.84579 -0.13333,4.24209 0.54764,0.7652 1.76198,0.85544 2.60158,0.59579 0.63559,0.41977 1.50625,0.9265 0.13406,1.0692 -0.98081,-0.39163 -2.31748,-0.48173 -3.45855,-0.7072 -0.0483,-2.01979 0.37816,-4.09637 -0.0121,-6.0868 -0.0806,-0.16497 0.54012,-1.3496 0.62903,-0.82811 z"
         id="path14-5-8" /><path
         style="fill:none;stroke:#50c878;stroke-width:4;stroke-dasharray:none;stroke-opacity:1"
         d="M 157.02763,99.351131 142.34595,94.114354"
         id="path3-7-6-5" /><path
         style="fill:none;stroke:#50c878;stroke-width:4;stroke-dasharray:none;stroke-opacity:1"
         d="M 156.82112,67.512704 142.13944,62.275927"
         id="path3-6-0-1-9" /><path
         style="fill:none;stroke:#50c878;stroke-width:4;stroke-dasharray:none;stroke-opacity:1"
         d="m 121.3604,167.46628 20.05872,9.91247 21.1809,-9.4449"
         id="path4-15-7" /><path
         style="display:inline;fill:none;stroke:#50c878;stroke-width:2;stroke-dasharray:none;stroke-opacity:1"
         d="m 151.30789,126.5656 -0.14772,6.27818 3.3674,0.35534"
         id="path6-9-5"
         transform="translate(0,12.605618)" /><ellipse
         style="display:inline;fill:none;stroke:#50c878;stroke-width:2.16287;stroke-dasharray:none"
         id="path8-8-3"
         cx="151.03979"
         cy="144.6653"
         rx="6.2658091"
         ry="8.4842634" /><ellipse
         style="fill:none;stroke:#50c878;stroke-width:2.16287;stroke-dasharray:none"
         id="path8-5-4-8"
         cx="132.19223"
         cy="144.66983"
         rx="6.2658091"
         ry="8.4842634" /><path
         style="fill:#50c878;fill-opacity:1;stroke:none;stroke-width:1;stroke-dasharray:none"
         id="path15-8-8"
         d="m 155.1428,132.05728 -1.49463,1.55857 0.0276,-3.63028 z"
         transform="matrix(1.1584133,0,0,0.98490617,-23.829356,15.908633)" /><path
         style="display:inline;fill:none;stroke:#50c878;stroke-width:2;stroke-dasharray:none;stroke-opacity:1"
         d="m 151.53621,126.60152 -0.34134,6.16501 3.534,-0.83923"
         id="path6-2-1-3"
         transform="translate(-19.234776,12.559228)" /><path
         style="fill:#50c878;fill-opacity:1;stroke:none;stroke-width:1;stroke-dasharray:none"
         id="path12-7-0-1"
         d="m 156.12092,124.44833 2.03414,-2.50174 1.69034,2.77555 z"
         transform="matrix(0.53698027,0,0,0.45875669,47.466094,82.019885)" /><path
         style="fill:#50c878;fill-opacity:1;stroke:none;stroke-width:1;stroke-dasharray:none"
         id="path12-7-9-30-8"
         d="m 156.15976,124.41647 1.80161,-2.57537 1.94717,2.70194 z"
         transform="matrix(0.53967329,0,0,0.45209764,66.022619,82.90538)" /><path
         style="fill:#50c878;fill-opacity:1;stroke:none;stroke-width:1;stroke-dasharray:none"
         id="path15-09-4-9"
         d="m 155.69941,131.19171 -2.46859,2.37061 0.19335,-3.53063 z"
         transform="matrix(0.80616501,0,0,0.97821337,11.588266,15.625486)" /></g></g></svg>
